<?xml version="1.0" standalone="no"?>
 <!DOCTYPE svg PUBLIC "-//W3C//DTD SVG 1.1//EN" 
 "http://www.w3.org/Graphics/SVG/1.1/DTD/svg11.dtd"> 
<svg xmlns="http://www.w3.org/2000/svg" version="1.1" 
    width="29.7002cm" height="21.0007cm" viewBox="0 0 116930 82680 ">
<title>SVG Picture created as BLKDIA.svg date 2018/10/23 16:06:34 </title>
  <desc>Picture generated by Eeschema-SVG </desc>
<g style="fill:#000000; fill-opacity:1;stroke:#000000; stroke-opacity:1;
stroke-linecap:round; stroke-linejoin:round; "
 transform="translate(0 0) scale(1 1)">
</g>
<g style="fill:#000000; fill-opacity:0.0; 
stroke:#000000; stroke-width:-10; stroke-opacity:1; 
stroke-linecap:round; stroke-linejoin:round;">
</g>
<g style="fill:#840000; fill-opacity:0.0; 
stroke:#840000; stroke-width:-10; stroke-opacity:1; 
stroke-linecap:round; stroke-linejoin:round;">
</g>
<g style="fill:#840000; fill-opacity:0.0; 
stroke:#840000; stroke-width:100; stroke-opacity:1; 
stroke-linecap:round; stroke-linejoin:round;">
</g>
<g style="fill:#840000; fill-opacity:0.0; 
stroke:#840000; stroke-width:60; stroke-opacity:1; 
stroke-linecap:round; stroke-linejoin:round;">
<rect x="69690" y="65360" width="42520" height="12600" rx="0" />
</g>
<g style="fill:#840000; fill-opacity:0.0; 
stroke:#840000; stroke-width:100; stroke-opacity:1; 
stroke-linecap:round; stroke-linejoin:round;">
</g>
<g style="fill:#840000; fill-opacity:0.0; 
stroke:#840000; stroke-width:60; stroke-opacity:1; 
stroke-linecap:round; stroke-linejoin:round;">
<rect x="3940" y="3940" width="109050" height="74800" rx="0" />
</g>
<g style="fill:#840000; fill-opacity:0.0; 
stroke:#840000; stroke-width:100; stroke-opacity:1; 
stroke-linecap:round; stroke-linejoin:round;">
</g>
<g style="fill:#840000; fill-opacity:0.0; 
stroke:#840000; stroke-width:60; stroke-opacity:1; 
stroke-linecap:round; stroke-linejoin:round;">
<rect x="4720" y="4720" width="107490" height="73240" rx="0" />
</g>
<g style="fill:#840000; fill-opacity:0.0; 
stroke:#840000; stroke-width:100; stroke-opacity:1; 
stroke-linecap:round; stroke-linejoin:round;">
</g>
<g style="fill:#840000; fill-opacity:0.0; 
stroke:#840000; stroke-width:60; stroke-opacity:1; 
stroke-linecap:round; stroke-linejoin:round;">
<path d="M23620 4720
L23620 3940
" />
</g>
<g style="fill:#840000; fill-opacity:0.0; 
stroke:#840000; stroke-width:100; stroke-opacity:1; 
stroke-linecap:round; stroke-linejoin:round;">
</g>
<g style="fill:#840000; fill-opacity:0.0; 
stroke:#840000; stroke-width:60; stroke-opacity:1; 
stroke-linecap:round; stroke-linejoin:round;">
<path d="M43310 4720
L43310 3940
" />
</g>
<g style="fill:#840000; fill-opacity:0.0; 
stroke:#840000; stroke-width:100; stroke-opacity:1; 
stroke-linecap:round; stroke-linejoin:round;">
</g>
<g style="fill:#840000; fill-opacity:0.0; 
stroke:#840000; stroke-width:60; stroke-opacity:1; 
stroke-linecap:round; stroke-linejoin:round;">
<path d="M62990 4720
L62990 3940
" />
</g>
<g style="fill:#840000; fill-opacity:0.0; 
stroke:#840000; stroke-width:100; stroke-opacity:1; 
stroke-linecap:round; stroke-linejoin:round;">
</g>
<g style="fill:#840000; fill-opacity:0.0; 
stroke:#840000; stroke-width:60; stroke-opacity:1; 
stroke-linecap:round; stroke-linejoin:round;">
<path d="M82680 4720
L82680 3940
" />
</g>
<g style="fill:#840000; fill-opacity:0.0; 
stroke:#840000; stroke-width:100; stroke-opacity:1; 
stroke-linecap:round; stroke-linejoin:round;">
</g>
<g style="fill:#840000; fill-opacity:0.0; 
stroke:#840000; stroke-width:60; stroke-opacity:1; 
stroke-linecap:round; stroke-linejoin:round;">
<path d="M102360 4720
L102360 3940
" />
</g>
<g style="fill:#840000; fill-opacity:0.0; 
stroke:#840000; stroke-width:100; stroke-opacity:1; 
stroke-linecap:round; stroke-linejoin:round;">
</g>
<g style="fill:#840000; fill-opacity:0.0; 
stroke:#840000; stroke-width:60; stroke-opacity:1; 
stroke-linecap:round; stroke-linejoin:round;">
<path d="M14190 4560
L13900 4560
" />
<path d="M14050 4560
L14050 4050
L14000 4120
L13950 4170
L13900 4190
" />
</g>
<g style="fill:#840000; fill-opacity:0.0; 
stroke:#840000; stroke-width:100; stroke-opacity:1; 
stroke-linecap:round; stroke-linejoin:round;">
</g>
<g style="fill:#840000; fill-opacity:0.0; 
stroke:#840000; stroke-width:60; stroke-opacity:1; 
stroke-linecap:round; stroke-linejoin:round;">
<path d="M33580 4090
L33610 4070
L33660 4050
L33780 4050
L33830 4070
L33850 4090
L33870 4140
L33870 4190
L33850 4260
L33560 4560
L33870 4560
" />
</g>
<g style="fill:#840000; fill-opacity:0.0; 
stroke:#840000; stroke-width:100; stroke-opacity:1; 
stroke-linecap:round; stroke-linejoin:round;">
</g>
<g style="fill:#840000; fill-opacity:0.0; 
stroke:#840000; stroke-width:60; stroke-opacity:1; 
stroke-linecap:round; stroke-linejoin:round;">
<path d="M53250 4050
L53560 4050
L53390 4240
L53470 4240
L53520 4260
L53540 4290
L53560 4340
L53560 4460
L53540 4510
L53520 4530
L53470 4560
L53320 4560
L53270 4530
L53250 4510
" />
</g>
<g style="fill:#840000; fill-opacity:0.0; 
stroke:#840000; stroke-width:100; stroke-opacity:1; 
stroke-linecap:round; stroke-linejoin:round;">
</g>
<g style="fill:#840000; fill-opacity:0.0; 
stroke:#840000; stroke-width:60; stroke-opacity:1; 
stroke-linecap:round; stroke-linejoin:round;">
<path d="M73200 4220
L73200 4560
" />
<path d="M73070 4020
L72950 4390
L73270 4390
" />
</g>
<g style="fill:#840000; fill-opacity:0.0; 
stroke:#840000; stroke-width:100; stroke-opacity:1; 
stroke-linecap:round; stroke-linejoin:round;">
</g>
<g style="fill:#840000; fill-opacity:0.0; 
stroke:#840000; stroke-width:60; stroke-opacity:1; 
stroke-linecap:round; stroke-linejoin:round;">
<path d="M92910 4050
L92670 4050
L92640 4290
L92670 4260
L92720 4240
L92840 4240
L92890 4260
L92910 4290
L92930 4340
L92930 4460
L92910 4510
L92890 4530
L92840 4560
L92720 4560
L92670 4530
L92640 4510
" />
</g>
<g style="fill:#840000; fill-opacity:0.0; 
stroke:#840000; stroke-width:100; stroke-opacity:1; 
stroke-linecap:round; stroke-linejoin:round;">
</g>
<g style="fill:#840000; fill-opacity:0.0; 
stroke:#840000; stroke-width:60; stroke-opacity:1; 
stroke-linecap:round; stroke-linejoin:round;">
<path d="M112570 4050
L112470 4050
L112420 4070
L112400 4090
L112350 4170
L112320 4260
L112320 4460
L112350 4510
L112370 4530
L112420 4560
L112520 4560
L112570 4530
L112590 4510
L112610 4460
L112610 4340
L112590 4290
L112570 4260
L112520 4240
L112420 4240
L112370 4260
L112350 4290
L112320 4340
" />
</g>
<g style="fill:#840000; fill-opacity:0.0; 
stroke:#840000; stroke-width:100; stroke-opacity:1; 
stroke-linecap:round; stroke-linejoin:round;">
</g>
<g style="fill:#840000; fill-opacity:0.0; 
stroke:#840000; stroke-width:60; stroke-opacity:1; 
stroke-linecap:round; stroke-linejoin:round;">
<path d="M23620 77960
L23620 78740
" />
</g>
<g style="fill:#840000; fill-opacity:0.0; 
stroke:#840000; stroke-width:100; stroke-opacity:1; 
stroke-linecap:round; stroke-linejoin:round;">
</g>
<g style="fill:#840000; fill-opacity:0.0; 
stroke:#840000; stroke-width:60; stroke-opacity:1; 
stroke-linecap:round; stroke-linejoin:round;">
<path d="M43310 77960
L43310 78740
" />
</g>
<g style="fill:#840000; fill-opacity:0.0; 
stroke:#840000; stroke-width:100; stroke-opacity:1; 
stroke-linecap:round; stroke-linejoin:round;">
</g>
<g style="fill:#840000; fill-opacity:0.0; 
stroke:#840000; stroke-width:60; stroke-opacity:1; 
stroke-linecap:round; stroke-linejoin:round;">
<path d="M62990 77960
L62990 78740
" />
</g>
<g style="fill:#840000; fill-opacity:0.0; 
stroke:#840000; stroke-width:100; stroke-opacity:1; 
stroke-linecap:round; stroke-linejoin:round;">
</g>
<g style="fill:#840000; fill-opacity:0.0; 
stroke:#840000; stroke-width:60; stroke-opacity:1; 
stroke-linecap:round; stroke-linejoin:round;">
<path d="M82680 77960
L82680 78740
" />
</g>
<g style="fill:#840000; fill-opacity:0.0; 
stroke:#840000; stroke-width:100; stroke-opacity:1; 
stroke-linecap:round; stroke-linejoin:round;">
</g>
<g style="fill:#840000; fill-opacity:0.0; 
stroke:#840000; stroke-width:60; stroke-opacity:1; 
stroke-linecap:round; stroke-linejoin:round;">
<path d="M102360 77960
L102360 78740
" />
</g>
<g style="fill:#840000; fill-opacity:0.0; 
stroke:#840000; stroke-width:100; stroke-opacity:1; 
stroke-linecap:round; stroke-linejoin:round;">
</g>
<g style="fill:#840000; fill-opacity:0.0; 
stroke:#840000; stroke-width:60; stroke-opacity:1; 
stroke-linecap:round; stroke-linejoin:round;">
<path d="M14190 78580
L13900 78580
" />
<path d="M14050 78580
L14050 78070
L14000 78140
L13950 78190
L13900 78210
" />
</g>
<g style="fill:#840000; fill-opacity:0.0; 
stroke:#840000; stroke-width:100; stroke-opacity:1; 
stroke-linecap:round; stroke-linejoin:round;">
</g>
<g style="fill:#840000; fill-opacity:0.0; 
stroke:#840000; stroke-width:60; stroke-opacity:1; 
stroke-linecap:round; stroke-linejoin:round;">
<path d="M33580 78110
L33610 78090
L33660 78070
L33780 78070
L33830 78090
L33850 78110
L33870 78160
L33870 78210
L33850 78280
L33560 78580
L33870 78580
" />
</g>
<g style="fill:#840000; fill-opacity:0.0; 
stroke:#840000; stroke-width:100; stroke-opacity:1; 
stroke-linecap:round; stroke-linejoin:round;">
</g>
<g style="fill:#840000; fill-opacity:0.0; 
stroke:#840000; stroke-width:60; stroke-opacity:1; 
stroke-linecap:round; stroke-linejoin:round;">
<path d="M53250 78070
L53560 78070
L53390 78260
L53470 78260
L53520 78280
L53540 78310
L53560 78360
L53560 78480
L53540 78530
L53520 78550
L53470 78580
L53320 78580
L53270 78550
L53250 78530
" />
</g>
<g style="fill:#840000; fill-opacity:0.0; 
stroke:#840000; stroke-width:100; stroke-opacity:1; 
stroke-linecap:round; stroke-linejoin:round;">
</g>
<g style="fill:#840000; fill-opacity:0.0; 
stroke:#840000; stroke-width:60; stroke-opacity:1; 
stroke-linecap:round; stroke-linejoin:round;">
<path d="M73200 78240
L73200 78580
" />
<path d="M73070 78040
L72950 78410
L73270 78410
" />
</g>
<g style="fill:#840000; fill-opacity:0.0; 
stroke:#840000; stroke-width:100; stroke-opacity:1; 
stroke-linecap:round; stroke-linejoin:round;">
</g>
<g style="fill:#840000; fill-opacity:0.0; 
stroke:#840000; stroke-width:60; stroke-opacity:1; 
stroke-linecap:round; stroke-linejoin:round;">
<path d="M92910 78070
L92670 78070
L92640 78310
L92670 78280
L92720 78260
L92840 78260
L92890 78280
L92910 78310
L92930 78360
L92930 78480
L92910 78530
L92890 78550
L92840 78580
L92720 78580
L92670 78550
L92640 78530
" />
</g>
<g style="fill:#840000; fill-opacity:0.0; 
stroke:#840000; stroke-width:100; stroke-opacity:1; 
stroke-linecap:round; stroke-linejoin:round;">
</g>
<g style="fill:#840000; fill-opacity:0.0; 
stroke:#840000; stroke-width:60; stroke-opacity:1; 
stroke-linecap:round; stroke-linejoin:round;">
<path d="M112570 78070
L112470 78070
L112420 78090
L112400 78110
L112350 78190
L112320 78280
L112320 78480
L112350 78530
L112370 78550
L112420 78580
L112520 78580
L112570 78550
L112590 78530
L112610 78480
L112610 78360
L112590 78310
L112570 78280
L112520 78260
L112420 78260
L112370 78280
L112350 78310
L112320 78360
" />
</g>
<g style="fill:#840000; fill-opacity:0.0; 
stroke:#840000; stroke-width:100; stroke-opacity:1; 
stroke-linecap:round; stroke-linejoin:round;">
</g>
<g style="fill:#840000; fill-opacity:0.0; 
stroke:#840000; stroke-width:60; stroke-opacity:1; 
stroke-linecap:round; stroke-linejoin:round;">
<path d="M3940 23620
L4720 23620
" />
</g>
<g style="fill:#840000; fill-opacity:0.0; 
stroke:#840000; stroke-width:100; stroke-opacity:1; 
stroke-linecap:round; stroke-linejoin:round;">
</g>
<g style="fill:#840000; fill-opacity:0.0; 
stroke:#840000; stroke-width:60; stroke-opacity:1; 
stroke-linecap:round; stroke-linejoin:round;">
<path d="M3940 43310
L4720 43310
" />
</g>
<g style="fill:#840000; fill-opacity:0.0; 
stroke:#840000; stroke-width:100; stroke-opacity:1; 
stroke-linecap:round; stroke-linejoin:round;">
</g>
<g style="fill:#840000; fill-opacity:0.0; 
stroke:#840000; stroke-width:60; stroke-opacity:1; 
stroke-linecap:round; stroke-linejoin:round;">
<path d="M3940 62990
L4720 62990
" />
</g>
<g style="fill:#840000; fill-opacity:0.0; 
stroke:#840000; stroke-width:100; stroke-opacity:1; 
stroke-linecap:round; stroke-linejoin:round;">
</g>
<g style="fill:#840000; fill-opacity:0.0; 
stroke:#840000; stroke-width:60; stroke-opacity:1; 
stroke-linecap:round; stroke-linejoin:round;">
<path d="M4200 13860
L4450 13860
" />
<path d="M4160 14010
L4330 13500
L4500 14010
" />
</g>
<g style="fill:#840000; fill-opacity:0.0; 
stroke:#840000; stroke-width:100; stroke-opacity:1; 
stroke-linecap:round; stroke-linejoin:round;">
</g>
<g style="fill:#840000; fill-opacity:0.0; 
stroke:#840000; stroke-width:60; stroke-opacity:1; 
stroke-linecap:round; stroke-linejoin:round;">
<path d="M4360 33420
L4430 33440
L4460 33470
L4480 33520
L4480 33590
L4460 33640
L4430 33660
L4390 33690
L4190 33690
L4190 33180
L4360 33180
L4410 33200
L4430 33220
L4460 33270
L4460 33320
L4430 33370
L4410 33390
L4360 33420
L4190 33420
" />
</g>
<g style="fill:#840000; fill-opacity:0.0; 
stroke:#840000; stroke-width:100; stroke-opacity:1; 
stroke-linecap:round; stroke-linejoin:round;">
</g>
<g style="fill:#840000; fill-opacity:0.0; 
stroke:#840000; stroke-width:60; stroke-opacity:1; 
stroke-linecap:round; stroke-linejoin:round;">
<path d="M4480 53330
L4460 53350
L4390 53380
L4340 53380
L4260 53350
L4220 53300
L4190 53250
L4170 53160
L4170 53080
L4190 52990
L4220 52940
L4260 52890
L4340 52870
L4390 52870
L4460 52890
L4480 52910
" />
</g>
<g style="fill:#840000; fill-opacity:0.0; 
stroke:#840000; stroke-width:100; stroke-opacity:1; 
stroke-linecap:round; stroke-linejoin:round;">
</g>
<g style="fill:#840000; fill-opacity:0.0; 
stroke:#840000; stroke-width:60; stroke-opacity:1; 
stroke-linecap:round; stroke-linejoin:round;">
<path d="M4190 73060
L4190 72550
L4310 72550
L4390 72570
L4430 72620
L4460 72670
L4480 72760
L4480 72840
L4460 72930
L4430 72980
L4390 73030
L4310 73060
L4190 73060
" />
</g>
<g style="fill:#840000; fill-opacity:0.0; 
stroke:#840000; stroke-width:100; stroke-opacity:1; 
stroke-linecap:round; stroke-linejoin:round;">
</g>
<g style="fill:#840000; fill-opacity:0.0; 
stroke:#840000; stroke-width:60; stroke-opacity:1; 
stroke-linecap:round; stroke-linejoin:round;">
<path d="M112990 23620
L112210 23620
" />
</g>
<g style="fill:#840000; fill-opacity:0.0; 
stroke:#840000; stroke-width:100; stroke-opacity:1; 
stroke-linecap:round; stroke-linejoin:round;">
</g>
<g style="fill:#840000; fill-opacity:0.0; 
stroke:#840000; stroke-width:60; stroke-opacity:1; 
stroke-linecap:round; stroke-linejoin:round;">
<path d="M112990 43310
L112210 43310
" />
</g>
<g style="fill:#840000; fill-opacity:0.0; 
stroke:#840000; stroke-width:100; stroke-opacity:1; 
stroke-linecap:round; stroke-linejoin:round;">
</g>
<g style="fill:#840000; fill-opacity:0.0; 
stroke:#840000; stroke-width:60; stroke-opacity:1; 
stroke-linecap:round; stroke-linejoin:round;">
<path d="M112990 62990
L112210 62990
" />
</g>
<g style="fill:#840000; fill-opacity:0.0; 
stroke:#840000; stroke-width:100; stroke-opacity:1; 
stroke-linecap:round; stroke-linejoin:round;">
</g>
<g style="fill:#840000; fill-opacity:0.0; 
stroke:#840000; stroke-width:60; stroke-opacity:1; 
stroke-linecap:round; stroke-linejoin:round;">
<path d="M112470 13860
L112720 13860
" />
<path d="M112430 14010
L112600 13500
L112770 14010
" />
</g>
<g style="fill:#840000; fill-opacity:0.0; 
stroke:#840000; stroke-width:100; stroke-opacity:1; 
stroke-linecap:round; stroke-linejoin:round;">
</g>
<g style="fill:#840000; fill-opacity:0.0; 
stroke:#840000; stroke-width:60; stroke-opacity:1; 
stroke-linecap:round; stroke-linejoin:round;">
<path d="M112630 33420
L112700 33440
L112730 33470
L112750 33520
L112750 33590
L112730 33640
L112700 33660
L112660 33690
L112460 33690
L112460 33180
L112630 33180
L112680 33200
L112700 33220
L112730 33270
L112730 33320
L112700 33370
L112680 33390
L112630 33420
L112460 33420
" />
</g>
<g style="fill:#840000; fill-opacity:0.0; 
stroke:#840000; stroke-width:100; stroke-opacity:1; 
stroke-linecap:round; stroke-linejoin:round;">
</g>
<g style="fill:#840000; fill-opacity:0.0; 
stroke:#840000; stroke-width:60; stroke-opacity:1; 
stroke-linecap:round; stroke-linejoin:round;">
<path d="M112750 53330
L112730 53350
L112660 53380
L112610 53380
L112530 53350
L112490 53300
L112460 53250
L112440 53160
L112440 53080
L112460 52990
L112490 52940
L112530 52890
L112610 52870
L112660 52870
L112730 52890
L112750 52910
" />
</g>
<g style="fill:#840000; fill-opacity:0.0; 
stroke:#840000; stroke-width:100; stroke-opacity:1; 
stroke-linecap:round; stroke-linejoin:round;">
</g>
<g style="fill:#840000; fill-opacity:0.0; 
stroke:#840000; stroke-width:60; stroke-opacity:1; 
stroke-linecap:round; stroke-linejoin:round;">
<path d="M112460 73060
L112460 72550
L112580 72550
L112660 72570
L112700 72620
L112730 72670
L112750 72760
L112750 72840
L112730 72930
L112700 72980
L112660 73030
L112580 73060
L112460 73060
" />
</g>
<g style="fill:#840000; fill-opacity:0.0; 
stroke:#840000; stroke-width:100; stroke-opacity:1; 
stroke-linecap:round; stroke-linejoin:round;">
</g>
<g style="fill:#840000; fill-opacity:0.0; 
stroke:#840000; stroke-width:60; stroke-opacity:1; 
stroke-linecap:round; stroke-linejoin:round;">
<path d="M78910 76290
L78910 75700
L79050 75700
L79130 75730
L79190 75790
L79210 75840
L79240 75950
L79240 76040
L79210 76150
L79190 76210
L79130 76260
L79050 76290
L78910 76290
" />
<path d="M79750 76290
L79750 75980
L79720 75930
L79660 75900
L79550 75900
L79500 75930
" />
<path d="M79750 76260
L79690 76290
L79550 76290
L79500 76260
L79470 76210
L79470 76150
L79500 76100
L79550 76070
L79690 76070
L79750 76040
" />
<path d="M79950 75900
L80170 75900
" />
<path d="M80030 75700
L80030 76210
L80060 76260
L80110 76290
L80170 76290
" />
<path d="M80590 76260
L80540 76290
L80420 76290
L80370 76260
L80340 76210
L80340 75980
L80370 75930
L80420 75900
L80540 75900
L80590 75930
L80620 75980
L80620 76040
L80340 76100
" />
<path d="M80870 76240
L80900 76260
L80870 76290
L80840 76260
L80870 76240
L80870 76290
" />
<path d="M80870 75930
L80900 75950
L80870 75980
L80840 75950
L80870 75930
L80870 75980
" />
</g>
<g style="fill:#840000; fill-opacity:0.0; 
stroke:#840000; stroke-width:100; stroke-opacity:1; 
stroke-linecap:round; stroke-linejoin:round;">
</g>
<g style="fill:#840000; fill-opacity:0.0; 
stroke:#840000; stroke-width:60; stroke-opacity:1; 
stroke-linecap:round; stroke-linejoin:round;">
<path d="M69690 76580
L112210 76580
" />
</g>
<g style="fill:#840000; fill-opacity:0.0; 
stroke:#840000; stroke-width:100; stroke-opacity:1; 
stroke-linecap:round; stroke-linejoin:round;">
</g>
<g style="fill:#840000; fill-opacity:0.0; 
stroke:#840000; stroke-width:60; stroke-opacity:1; 
stroke-linecap:round; stroke-linejoin:round;">
<path d="M70250 77390
L70250 76800
" />
<path d="M70580 77390
L70330 77050
" />
<path d="M70580 76800
L70250 77140
" />
<path d="M70840 77390
L70840 77000
" />
<path d="M70840 76800
L70810 76830
L70840 76860
L70860 76830
L70840 76800
L70840 76860
" />
<path d="M71450 77340
L71430 77360
L71340 77390
L71290 77390
L71200 77360
L71140 77310
L71120 77250
L71090 77140
L71090 77050
L71120 76940
L71140 76890
L71200 76830
L71290 76800
L71340 76800
L71430 76830
L71450 76860
" />
<path d="M71960 77390
L71960 77080
L71930 77030
L71880 77000
L71760 77000
L71710 77030
" />
<path d="M71960 77360
L71900 77390
L71760 77390
L71710 77360
L71680 77310
L71680 77250
L71710 77200
L71760 77170
L71900 77170
L71960 77140
" />
<path d="M72490 77390
L72490 76800
" />
<path d="M72490 77360
L72440 77390
L72320 77390
L72270 77360
L72240 77340
L72210 77280
L72210 77110
L72240 77050
L72270 77030
L72320 77000
L72440 77000
L72490 77030
" />
<path d="M73220 77080
L73420 77080
" />
<path d="M73500 77390
L73220 77390
L73220 76800
L73500 76800
" />
<path d="M73760 77340
L73790 77360
L73760 77390
L73730 77360
L73760 77340
L73760 77390
" />
<path d="M74040 77390
L74040 76800
L74180 76800
L74260 76830
L74320 76890
L74350 76940
L74380 77050
L74380 77140
L74350 77250
L74320 77310
L74260 77360
L74180 77390
L74040 77390
" />
<path d="M74630 77340
L74660 77360
L74630 77390
L74600 77360
L74630 77340
L74630 77390
" />
<path d="M74880 77220
L75160 77220
" />
<path d="M74830 77390
L75020 76800
L75220 77390
" />
<path d="M75420 77340
L75440 77360
L75420 77390
L75390 77360
L75420 77340
L75420 77390
" />
<path d="M76600 77390
L76600 76800
" />
<path d="M76650 77170
L76820 77390
" />
<path d="M76820 77000
L76600 77220
" />
<path d="M77070 77390
L77070 77000
" />
<path d="M77070 76800
L77040 76830
L77070 76860
L77100 76830
L77070 76800
L77070 76860
" />
<path d="M77610 77360
L77550 77390
L77440 77390
L77380 77360
L77350 77340
L77330 77280
L77330 77110
L77350 77050
L77380 77030
L77440 77000
L77550 77000
L77610 77030
" />
<path d="M78110 77390
L78110 77080
L78080 77030
L78030 77000
L77920 77000
L77860 77030
" />
<path d="M78110 77360
L78060 77390
L77920 77390
L77860 77360
L77830 77310
L77830 77250
L77860 77200
L77920 77170
L78060 77170
L78110 77140
" />
<path d="M78650 77390
L78650 76800
" />
<path d="M78650 77360
L78590 77390
L78480 77390
L78420 77360
L78390 77340
L78370 77280
L78370 77110
L78390 77050
L78420 77030
L78480 77000
L78590 77000
L78650 77030
" />
<path d="M79660 76800
L79380 76800
L79350 77080
L79380 77050
L79430 77030
L79570 77030
L79630 77050
L79660 77080
L79690 77140
L79690 77280
L79660 77340
L79630 77360
L79570 77390
L79430 77390
L79380 77360
L79350 77340
" />
<path d="M79940 77340
L79970 77360
L79940 77390
L79910 77360
L79940 77340
L79940 77390
" />
<path d="M80330 76800
L80390 76800
L80440 76830
L80470 76860
L80500 76910
L80530 77030
L80530 77170
L80500 77280
L80470 77340
L80440 77360
L80390 77390
L80330 77390
L80280 77360
L80250 77340
L80220 77280
L80190 77170
L80190 77030
L80220 76910
L80250 76860
L80280 76830
L80330 76800
" />
<path d="M80780 77340
L80810 77360
L80780 77390
L80750 77360
L80780 77340
L80780 77390
" />
<path d="M81370 77390
L81030 77390
" />
<path d="M81200 77390
L81200 76800
L81150 76890
L81090 76940
L81030 76970
" />
</g>
<g style="fill:#840000; fill-opacity:0.0; 
stroke:#840000; stroke-width:100; stroke-opacity:1; 
stroke-linecap:round; stroke-linejoin:round;">
</g>
<g style="fill:#840000; fill-opacity:0.0; 
stroke:#840000; stroke-width:60; stroke-opacity:1; 
stroke-linecap:round; stroke-linejoin:round;">
<path d="M69690 75400
L112210 75400
" />
</g>
<g style="fill:#840000; fill-opacity:0.0; 
stroke:#840000; stroke-width:100; stroke-opacity:1; 
stroke-linecap:round; stroke-linejoin:round;">
</g>
<g style="fill:#840000; fill-opacity:0.0; 
stroke:#840000; stroke-width:120; stroke-opacity:1; 
stroke-linecap:round; stroke-linejoin:round;">
<path d="M104090 76290
L103890 76010
" />
<path d="M103750 76290
L103750 75700
L103980 75700
L104030 75730
L104060 75760
L104090 75810
L104090 75900
L104060 75950
L104030 75980
L103980 76010
L103750 76010
" />
<path d="M104570 76260
L104510 76290
L104400 76290
L104340 76260
L104320 76210
L104320 75980
L104340 75930
L104400 75900
L104510 75900
L104570 75930
L104600 75980
L104600 76040
L104320 76100
" />
<path d="M104790 75900
L104930 76290
L105070 75900
" />
<path d="M105300 76240
L105330 76260
L105300 76290
L105270 76260
L105300 76240
L105300 76290
" />
<path d="M105300 75930
L105330 75950
L105300 75980
L105270 75950
L105300 75930
L105300 75980
" />
</g>
<g style="fill:#840000; fill-opacity:0.0; 
stroke:#840000; stroke-width:100; stroke-opacity:1; 
stroke-linecap:round; stroke-linejoin:round;">
</g>
<g style="fill:#840000; fill-opacity:0.0; 
stroke:#840000; stroke-width:60; stroke-opacity:1; 
stroke-linecap:round; stroke-linejoin:round;">
<path d="M70220 76260
L70300 76290
L70440 76290
L70500 76260
L70530 76240
L70550 76180
L70550 76120
L70530 76070
L70500 76040
L70440 76010
L70330 75980
L70270 75950
L70250 75930
L70220 75870
L70220 75810
L70250 75760
L70270 75730
L70330 75700
L70470 75700
L70550 75730
" />
<path d="M70810 76290
L70810 75900
" />
<path d="M70810 75700
L70780 75730
L70810 75760
L70840 75730
L70810 75700
L70810 75760
" />
<path d="M71030 75900
L71340 75900
L71030 76290
L71340 76290
" />
<path d="M71790 76260
L71730 76290
L71620 76290
L71570 76260
L71540 76210
L71540 75980
L71570 75930
L71620 75900
L71730 75900
L71790 75930
L71820 75980
L71820 76040
L71540 76100
" />
<path d="M72070 76240
L72100 76260
L72070 76290
L72040 76260
L72070 76240
L72070 76290
" />
<path d="M72070 75930
L72100 75950
L72070 75980
L72040 75950
L72070 75930
L72070 75980
" />
<path d="M72770 76120
L73060 76120
" />
<path d="M72720 76290
L72910 75700
L73110 76290
" />
<path d="M73560 75900
L73560 76290
" />
<path d="M73420 75670
L73280 76100
L73650 76100
" />
</g>
<g style="fill:#840000; fill-opacity:0.0; 
stroke:#840000; stroke-width:100; stroke-opacity:1; 
stroke-linecap:round; stroke-linejoin:round;">
</g>
<g style="fill:#840000; fill-opacity:0.0; 
stroke:#840000; stroke-width:60; stroke-opacity:1; 
stroke-linecap:round; stroke-linejoin:round;">
<path d="M103710 77390
L103710 76800
" />
<path d="M104240 77390
L104240 76800
" />
<path d="M104240 77360
L104180 77390
L104070 77390
L104010 77360
L103990 77340
L103960 77280
L103960 77110
L103990 77050
L104010 77030
L104070 77000
L104180 77000
L104240 77030
" />
<path d="M104520 77340
L104550 77360
L104520 77390
L104490 77360
L104520 77340
L104520 77390
" />
<path d="M104520 77030
L104550 77050
L104520 77080
L104490 77050
L104520 77030
L104520 77080
" />
<path d="M105560 77390
L105220 77390
" />
<path d="M105390 77390
L105390 76800
L105340 76890
L105280 76940
L105220 76970
" />
<path d="M106230 76770
L105730 77530
" />
<path d="M106520 77050
L106460 77030
L106430 77000
L106400 76940
L106400 76910
L106430 76860
L106460 76830
L106520 76800
L106630 76800
L106680 76830
L106710 76860
L106740 76910
L106740 76940
L106710 77000
L106680 77030
L106630 77050
L106520 77050
L106460 77080
L106430 77110
L106400 77170
L106400 77280
L106430 77340
L106460 77360
L106520 77390
L106630 77390
L106680 77360
L106710 77340
L106740 77280
L106740 77170
L106710 77110
L106680 77080
L106630 77050
" />
</g>
<g style="fill:#840000; fill-opacity:0.0; 
stroke:#840000; stroke-width:100; stroke-opacity:1; 
stroke-linecap:round; stroke-linejoin:round;">
</g>
<g style="fill:#840000; fill-opacity:0.0; 
stroke:#840000; stroke-width:60; stroke-opacity:1; 
stroke-linecap:round; stroke-linejoin:round;">
<path d="M69690 73820
L112210 73820
" />
</g>
<g style="fill:#840000; fill-opacity:0.0; 
stroke:#840000; stroke-width:100; stroke-opacity:1; 
stroke-linecap:round; stroke-linejoin:round;">
</g>
<g style="fill:#840000; fill-opacity:0.0; 
stroke:#840000; stroke-width:160; stroke-opacity:1; 
stroke-linecap:round; stroke-linejoin:round;">
<path d="M70360 74090
L70810 74090
" />
<path d="M70480 74880
L70580 74090
" />
<path d="M70970 74880
L71040 74360
" />
<path d="M71070 74090
L71030 74130
L71060 74170
L71110 74130
L71070 74090
L71060 74170
" />
<path d="M71300 74360
L71600 74360
" />
<path d="M71450 74090
L71360 74770
L71390 74840
L71460 74880
L71540 74880
" />
<path d="M71910 74880
L71840 74840
L71820 74770
L71900 74090
" />
<path d="M72520 74840
L72440 74880
L72290 74880
L72220 74840
L72190 74770
L72230 74470
L72280 74390
L72360 74360
L72510 74360
L72580 74390
L72610 74470
L72600 74540
L72210 74620
" />
<path d="M72900 74810
L72930 74840
L72890 74880
L72860 74840
L72900 74810
L72890 74880
" />
<path d="M72950 74390
L72990 74430
L72940 74470
L72910 74430
L72950 74390
L72940 74470
" />
</g>
<g style="fill:#840000; fill-opacity:0.0; 
stroke:#840000; stroke-width:100; stroke-opacity:1; 
stroke-linecap:round; stroke-linejoin:round;">
</g>
<g style="fill:#840000; fill-opacity:0.0; 
stroke:#840000; stroke-width:60; stroke-opacity:1; 
stroke-linecap:round; stroke-linejoin:round;">
<path d="M70440 73060
L70250 73060
" />
<path d="M70250 73370
L70250 72780
L70530 72780
" />
<path d="M70750 73370
L70750 72980
" />
<path d="M70750 72780
L70720 72810
L70750 72840
L70780 72810
L70750 72780
L70750 72840
" />
<path d="M71120 73370
L71060 73340
L71030 73290
L71030 72780
" />
<path d="M71570 73340
L71510 73370
L71400 73370
L71340 73340
L71310 73290
L71310 73060
L71340 73010
L71400 72980
L71510 72980
L71570 73010
L71590 73060
L71590 73120
L71310 73180
" />
<path d="M71850 73320
L71880 73340
L71850 73370
L71820 73340
L71850 73320
L71850 73370
" />
<path d="M71850 73010
L71880 73030
L71850 73060
L71820 73030
L71850 73010
L71850 73060
" />
<path d="M72770 73060
L72860 73090
L72890 73120
L72910 73180
L72910 73260
L72890 73320
L72860 73340
L72800 73370
L72580 73370
L72580 72780
L72770 72780
L72830 72810
L72860 72840
L72890 72890
L72890 72950
L72860 73010
L72830 73030
L72770 73060
L72580 73060
" />
<path d="M73450 73370
L73170 73370
L73170 72780
" />
<path d="M73650 73370
L73650 72780
" />
<path d="M73980 73370
L73730 73030
" />
<path d="M73980 72780
L73650 73120
" />
<path d="M74240 73370
L74240 72780
L74380 72780
L74460 72810
L74520 72870
L74540 72920
L74570 73030
L74570 73120
L74540 73230
L74520 73290
L74460 73340
L74380 73370
L74240 73370
" />
<path d="M74830 73370
L74830 72780
" />
<path d="M75080 73200
L75360 73200
" />
<path d="M75020 73370
L75220 72780
L75420 73370
" />
<path d="M75610 73320
L75640 73340
L75610 73370
L75580 73340
L75610 73320
L75610 73370
" />
<path d="M75860 73340
L75920 73370
L76030 73370
L76090 73340
L76120 73290
L76120 73260
L76090 73200
L76030 73180
L75950 73180
L75890 73150
L75860 73090
L75860 73060
L75890 73010
L75950 72980
L76030 72980
L76090 73010
" />
<path d="M76620 73340
L76570 73370
L76450 73370
L76400 73340
L76370 73320
L76340 73260
L76340 73090
L76370 73030
L76400 73010
L76450 72980
L76570 72980
L76620 73010
" />
<path d="M76880 73370
L76880 72780
" />
<path d="M77130 73370
L77130 73060
L77100 73010
L77040 72980
L76960 72980
L76900 73010
L76880 73030
" />
</g>
<g style="fill:#840000; fill-opacity:0.0; 
stroke:#840000; stroke-width:100; stroke-opacity:1; 
stroke-linecap:round; stroke-linejoin:round;">
</g>
<g style="fill:#840000; fill-opacity:0.0; 
stroke:#840000; stroke-width:60; stroke-opacity:1; 
stroke-linecap:round; stroke-linejoin:round;">
<path d="M69690 71460
L112210 71460
" />
</g>
<g style="fill:#840000; fill-opacity:0.0; 
stroke:#840000; stroke-width:100; stroke-opacity:1; 
stroke-linecap:round; stroke-linejoin:round;">
</g>
<g style="fill:#840000; fill-opacity:0.0; 
stroke:#840000; stroke-width:60; stroke-opacity:1; 
stroke-linecap:round; stroke-linejoin:round;">
<path d="M70220 72280
L70300 72310
L70440 72310
L70500 72280
L70530 72260
L70550 72200
L70550 72140
L70530 72090
L70500 72060
L70440 72030
L70330 72000
L70270 71970
L70250 71950
L70220 71890
L70220 71830
L70250 71780
L70270 71750
L70330 71720
L70470 71720
L70550 71750
" />
<path d="M70810 72310
L70810 71720
" />
<path d="M71060 72310
L71060 72000
L71030 71950
L70980 71920
L70890 71920
L70840 71950
L70810 71970
" />
<path d="M71570 72280
L71510 72310
L71400 72310
L71340 72280
L71310 72230
L71310 72000
L71340 71950
L71400 71920
L71510 71920
L71570 71950
L71590 72000
L71590 72060
L71310 72120
" />
<path d="M72070 72280
L72020 72310
L71900 72310
L71850 72280
L71820 72230
L71820 72000
L71850 71950
L71900 71920
L72020 71920
L72070 71950
L72100 72000
L72100 72060
L71820 72120
" />
<path d="M72270 71920
L72490 71920
" />
<path d="M72350 71720
L72350 72230
L72380 72280
L72440 72310
L72490 72310
" />
<path d="M72690 72260
L72720 72280
L72690 72310
L72660 72280
L72690 72260
L72690 72310
" />
<path d="M72690 71950
L72720 71970
L72690 72000
L72660 71970
L72690 71950
L72690 72000
" />
<path d="M73840 71690
L73340 72450
" />
</g>
<g style="fill:#840000; fill-opacity:0.0; 
stroke:#840000; stroke-width:100; stroke-opacity:1; 
stroke-linecap:round; stroke-linejoin:round;">
</g>
<g style="fill:#840000; fill-opacity:0.0; 
stroke:#840000; stroke-width:60; stroke-opacity:1; 
stroke-linecap:round; stroke-linejoin:round;">
<path d="M77560 75400
L77560 76580
" />
</g>
<g style="fill:#840000; fill-opacity:0.0; 
stroke:#840000; stroke-width:100; stroke-opacity:1; 
stroke-linecap:round; stroke-linejoin:round;">
</g>
<g style="fill:#840000; fill-opacity:0.0; 
stroke:#840000; stroke-width:60; stroke-opacity:1; 
stroke-linecap:round; stroke-linejoin:round;">
<path d="M102760 75400
L102760 77960
" />
</g>
<g style="fill:#0000C2; fill-opacity:0.0; 
stroke:#0000C2; stroke-width:60; stroke-opacity:1; 
stroke-linecap:round; stroke-linejoin:round;">
<path d="M74000 74870
L73810 74590
" />
<path d="M73670 74870
L73670 74280
L73890 74280
L73950 74310
L73970 74330
L74000 74390
L74000 74470
L73970 74530
L73950 74560
L73890 74590
L73670 74590
" />
<path d="M74370 74280
L74480 74280
L74540 74310
L74590 74360
L74620 74470
L74620 74670
L74590 74780
L74540 74840
L74480 74870
L74370 74870
L74310 74840
L74260 74780
L74230 74670
L74230 74470
L74260 74360
L74310 74310
L74370 74280
" />
<path d="M74790 74280
L74990 74870
L75180 74280
" />
<path d="M75380 74560
L75580 74560
" />
<path d="M75660 74870
L75380 74870
L75380 74280
L75660 74280
" />
<path d="M76250 74870
L76050 74590
" />
<path d="M75910 74870
L75910 74280
L76140 74280
L76190 74310
L76220 74330
L76250 74390
L76250 74470
L76220 74530
L76190 74560
L76140 74590
L75910 74590
" />
<path d="M76950 74870
L76950 74280
L77180 74280
L77230 74310
L77260 74330
L77290 74390
L77290 74470
L77260 74530
L77230 74560
L77180 74590
L76950 74590
" />
<path d="M77660 74280
L77770 74280
L77820 74310
L77880 74360
L77910 74470
L77910 74670
L77880 74780
L77820 74840
L77770 74870
L77660 74870
L77600 74840
L77540 74780
L77510 74670
L77510 74470
L77540 74360
L77600 74310
L77660 74280
" />
<path d="M78100 74280
L78250 74870
L78360 74450
L78470 74870
L78610 74280
" />
<path d="M78840 74560
L79030 74560
" />
<path d="M79120 74870
L78840 74870
L78840 74280
L79120 74280
" />
<path d="M79710 74870
L79510 74590
" />
<path d="M79370 74870
L79370 74280
L79590 74280
L79650 74310
L79680 74330
L79710 74390
L79710 74470
L79680 74530
L79650 74560
L79590 74590
L79370 74590
" />
<path d="M80610 74560
L80690 74590
L80720 74610
L80750 74670
L80750 74750
L80720 74810
L80690 74840
L80630 74870
L80410 74870
L80410 74280
L80610 74280
L80660 74310
L80690 74330
L80720 74390
L80720 74450
L80690 74500
L80660 74530
L80610 74560
L80410 74560
" />
<path d="M81280 74870
L81000 74870
L81000 74280
" />
<path d="M81590 74280
L81700 74280
L81760 74310
L81810 74360
L81840 74470
L81840 74670
L81810 74780
L81760 74840
L81700 74870
L81590 74870
L81530 74840
L81480 74780
L81450 74670
L81450 74470
L81480 74360
L81530 74310
L81590 74280
" />
<path d="M82430 74810
L82400 74840
L82320 74870
L82260 74870
L82180 74840
L82120 74780
L82090 74730
L82070 74610
L82070 74530
L82090 74420
L82120 74360
L82180 74310
L82260 74280
L82320 74280
L82400 74310
L82430 74330
" />
<path d="M82680 74870
L82680 74280
" />
<path d="M83020 74870
L82770 74530
" />
<path d="M83020 74280
L82680 74610
" />
<path d="M83720 74870
L83720 74280
L83860 74280
L83950 74310
L84000 74360
L84030 74420
L84060 74530
L84060 74610
L84030 74730
L84000 74780
L83950 74840
L83860 74870
L83720 74870
" />
<path d="M84310 74870
L84310 74280
" />
<path d="M84570 74700
L84850 74700
" />
<path d="M84510 74870
L84710 74280
L84900 74870
" />
<path d="M85410 74310
L85350 74280
L85270 74280
L85180 74310
L85130 74360
L85100 74420
L85070 74530
L85070 74610
L85100 74730
L85130 74780
L85180 74840
L85270 74870
L85330 74870
L85410 74840
L85440 74810
L85440 74610
L85330 74610
" />
<path d="M86030 74870
L85830 74590
" />
<path d="M85690 74870
L85690 74280
L85920 74280
L85970 74310
L86000 74330
L86030 74390
L86030 74470
L86000 74530
L85970 74560
L85920 74590
L85690 74590
" />
<path d="M86250 74700
L86530 74700
" />
<path d="M86200 74870
L86390 74280
L86590 74870
" />
<path d="M86790 74870
L86790 74280
L86980 74700
L87180 74280
L87180 74870
" />
<path d="M106000 76310
L105970 76340
L105890 76370
L105830 76370
L105750 76340
L105690 76280
L105670 76230
L105640 76110
L105640 76030
L105670 75920
L105690 75860
L105750 75810
L105830 75780
L105890 75780
L105970 75810
L106000 75830
" />
<path d="M81470 76370
L81140 76370
" />
<path d="M81310 76370
L81310 75780
L81250 75860
L81190 75920
L81140 75950
" />
<path d="M81840 75780
L81900 75780
L81950 75810
L81980 75830
L82010 75890
L82040 76000
L82040 76140
L82010 76250
L81980 76310
L81950 76340
L81900 76370
L81840 76370
L81780 76340
L81760 76310
L81730 76250
L81700 76140
L81700 76000
L81730 75890
L81760 75830
L81780 75810
L81840 75780
" />
<path d="M82710 75750
L82210 76510
" />
<path d="M82880 75830
L82910 75810
L82960 75780
L83100 75780
L83160 75810
L83190 75830
L83220 75890
L83220 75950
L83190 76030
L82850 76370
L83220 76370
" />
<path d="M83440 75830
L83470 75810
L83530 75780
L83670 75780
L83720 75810
L83750 75830
L83780 75890
L83780 75950
L83750 76030
L83410 76370
L83780 76370
" />
<path d="M84450 75750
L83950 76510
" />
<path d="M84960 76370
L84620 76370
" />
<path d="M84790 76370
L84790 75780
L84730 75860
L84680 75920
L84620 75950
" />
<path d="M85300 76030
L85240 76000
L85210 75970
L85180 75920
L85180 75890
L85210 75830
L85240 75810
L85300 75780
L85410 75780
L85460 75810
L85490 75830
L85520 75890
L85520 75920
L85490 75970
L85460 76000
L85410 76030
L85300 76030
L85240 76060
L85210 76090
L85180 76140
L85180 76250
L85210 76310
L85240 76340
L85300 76370
L85410 76370
L85460 76340
L85490 76310
L85520 76250
L85520 76140
L85490 76090
L85460 76060
L85410 76030
" />
</g>
<g style="fill:#840084; fill-opacity:0.0; 
stroke:#840084; stroke-width:60; stroke-opacity:1; 
stroke-linecap:round; stroke-linejoin:round;">
<path d="M26500 27500
L39000 27500
L39000 33500
L26500 33500
L26500 27500
" />
</g>
<g style="fill:#008484; fill-opacity:0.0; 
stroke:#008484; stroke-width:60; stroke-opacity:1; 
stroke-linecap:round; stroke-linejoin:round;">
</g>
<g style="fill:#000000; fill-opacity:0.0; 
stroke:#000000; stroke-width:60; stroke-opacity:1; 
stroke-linecap:round; stroke-linejoin:round;">
<path d="M27310 27120
L27400 27150
L27420 27170
L27450 27230
L27450 27310
L27420 27370
L27400 27400
L27340 27430
L27120 27430
L27120 26840
L27310 26840
L27370 26870
L27400 26890
L27420 26950
L27420 27010
L27400 27060
L27370 27090
L27310 27120
L27120 27120
" />
<path d="M27680 27260
L27960 27260
" />
<path d="M27620 27430
L27820 26840
L28010 27430
" />
<path d="M28130 26840
L28460 26840
" />
<path d="M28300 27430
L28300 26840
" />
<path d="M28580 26840
L28910 26840
" />
<path d="M28740 27430
L28740 26840
" />
<path d="M29110 27120
L29310 27120
" />
<path d="M29390 27430
L29110 27430
L29110 26840
L29390 26840
" />
<path d="M29980 27430
L29780 27150
" />
<path d="M29640 27430
L29640 26840
L29870 26840
L29920 26870
L29950 26890
L29980 26950
L29980 27030
L29950 27090
L29920 27120
L29870 27150
L29640 27150
" />
<path d="M30350 27150
L30350 27430
" />
<path d="M30150 26840
L30350 27150
L30540 26840
" />
</g>
<g style="fill:#848400; fill-opacity:0.0; 
stroke:#848400; stroke-width:60; stroke-opacity:1; 
stroke-linecap:round; stroke-linejoin:round;">
</g>
<g style="fill:#000000; fill-opacity:0.0; 
stroke:#000000; stroke-width:60; stroke-opacity:1; 
stroke-linecap:round; stroke-linejoin:round;">
<path d="M26860 33790
L26950 33820
L26970 33840
L27000 33900
L27000 33980
L26970 34040
L26950 34070
L26890 34100
L26670 34100
L26670 33510
L26860 33510
L26920 33540
L26950 33560
L26970 33620
L26970 33680
L26950 33730
L26920 33760
L26860 33790
L26670 33790
" />
<path d="M27230 33930
L27510 33930
" />
<path d="M27170 34100
L27370 33510
L27560 34100
" />
<path d="M27680 33510
L28010 33510
" />
<path d="M27850 34100
L27850 33510
" />
<path d="M28130 33510
L28460 33510
" />
<path d="M28300 34100
L28300 33510
" />
<path d="M28660 33790
L28860 33790
" />
<path d="M28940 34100
L28660 34100
L28660 33510
L28940 33510
" />
<path d="M29530 34100
L29330 33820
" />
<path d="M29190 34100
L29190 33510
L29420 33510
L29480 33540
L29500 33560
L29530 33620
L29530 33700
L29500 33760
L29480 33790
L29420 33820
L29190 33820
" />
<path d="M29900 33820
L29900 34100
" />
<path d="M29700 33510
L29900 33820
L30090 33510
" />
<path d="M30290 34040
L30320 34070
L30290 34100
L30260 34070
L30290 34040
L30290 34100
" />
<path d="M30540 34070
L30600 34100
L30710 34100
L30770 34070
L30800 34010
L30800 33980
L30770 33930
L30710 33900
L30630 33900
L30570 33870
L30540 33820
L30540 33790
L30570 33730
L30630 33700
L30710 33700
L30770 33730
" />
<path d="M31300 34070
L31250 34100
L31130 34100
L31080 34070
L31050 34040
L31020 33980
L31020 33820
L31050 33760
L31080 33730
L31130 33700
L31250 33700
L31300 33730
" />
<path d="M31550 34100
L31550 33510
" />
<path d="M31810 34100
L31810 33790
L31780 33730
L31720 33700
L31640 33700
L31580 33730
L31550 33760
" />
</g>
<g style="fill:#840084; fill-opacity:0.0; 
stroke:#840084; stroke-width:60; stroke-opacity:1; 
stroke-linecap:round; stroke-linejoin:round;">
</g>
<g style="fill:#848400; fill-opacity:0.0; 
stroke:#848400; stroke-width:60; stroke-opacity:1; 
stroke-linecap:round; stroke-linejoin:round;">
<path d="M36360 32760
L36030 32760
" />
<path d="M36200 32760
L36200 32170
L36140 32260
L36080 32310
L36030 32340
" />
<path d="M36900 32170
L36620 32170
L36590 32450
L36620 32420
L36670 32400
L36810 32400
L36870 32420
L36900 32450
L36930 32510
L36930 32650
L36900 32710
L36870 32730
L36810 32760
L36670 32760
L36620 32730
L36590 32710
" />
<path d="M37100 32170
L37290 32760
L37490 32170
" />
<path d="M37690 32540
L38130 32540
" />
</g>
<g style="fill:#848400; fill-opacity:0.0; 
stroke:#848400; stroke-width:100; stroke-opacity:1; 
stroke-linecap:round; stroke-linejoin:round;">
<polyline fill="none;"
points="38420,32500
38710,32790
39000,32790
39000,32210
38710,32210
38420,32500
" /> 
</g>
<g style="fill:#848400; fill-opacity:0.0; 
stroke:#848400; stroke-width:60; stroke-opacity:1; 
stroke-linecap:round; stroke-linejoin:round;">
<path d="M36360 31760
L36030 31760
" />
<path d="M36200 31760
L36200 31170
L36140 31260
L36080 31310
L36030 31340
" />
<path d="M36900 31170
L36620 31170
L36590 31450
L36620 31420
L36670 31400
L36810 31400
L36870 31420
L36900 31450
L36930 31510
L36930 31650
L36900 31710
L36870 31730
L36810 31760
L36670 31760
L36620 31730
L36590 31710
" />
<path d="M37100 31170
L37290 31760
L37490 31170
" />
<path d="M37690 31540
L38130 31540
" />
<path d="M37910 31760
L37910 31310
" />
</g>
<g style="fill:#848400; fill-opacity:0.0; 
stroke:#848400; stroke-width:100; stroke-opacity:1; 
stroke-linecap:round; stroke-linejoin:round;">
<polyline fill="none;"
points="38420,31500
38710,31790
39000,31790
39000,31210
38710,31210
38420,31500
" /> 
</g>
<g style="fill:#848400; fill-opacity:0.0; 
stroke:#848400; stroke-width:60; stroke-opacity:1; 
stroke-linecap:round; stroke-linejoin:round;">
<path d="M36930 27700
L36870 27670
L36790 27670
L36700 27700
L36650 27760
L36620 27810
L36590 27920
L36590 28010
L36620 28120
L36650 28180
L36700 28230
L36790 28260
L36840 28260
L36930 28230
L36950 28210
L36950 28010
L36840 28010
" />
<path d="M37210 28260
L37210 27670
L37540 28260
L37540 27670
" />
<path d="M37830 28260
L37830 27670
L37970 27670
L38050 27700
L38110 27760
L38130 27810
L38160 27920
L38160 28010
L38130 28120
L38110 28180
L38050 28230
L37970 28260
L37830 28260
" />
</g>
<g style="fill:#848400; fill-opacity:0.0; 
stroke:#848400; stroke-width:100; stroke-opacity:1; 
stroke-linecap:round; stroke-linejoin:round;">
<polyline fill="none;"
points="38420,28000
38710,28290
39000,28290
39000,27710
38710,27710
38420,28000
" /> 
</g>
<g style="fill:#848400; fill-opacity:0.0; 
stroke:#848400; stroke-width:60; stroke-opacity:1; 
stroke-linecap:round; stroke-linejoin:round;">
<path d="M34260 29210
L34230 29230
L34150 29260
L34090 29260
L34000 29230
L33950 29180
L33920 29120
L33890 29010
L33890 28920
L33920 28810
L33950 28760
L34000 28700
L34090 28670
L34150 28670
L34230 28700
L34260 28730
" />
<path d="M34510 28950
L34710 28950
" />
<path d="M34790 29260
L34510 29260
L34510 28670
L34790 28670
" />
<path d="M35330 29260
L35040 29260
L35040 28670
" />
<path d="M35800 29260
L35520 29260
L35520 28670
" />
<path d="M35970 29230
L36060 29260
L36200 29260
L36250 29230
L36280 29210
L36310 29150
L36310 29090
L36280 29040
L36250 29010
L36200 28980
L36080 28950
L36030 28920
L36000 28900
L35970 28840
L35970 28780
L36000 28730
L36030 28700
L36080 28670
L36220 28670
L36310 28700
" />
<path d="M36870 29260
L36530 29260
" />
<path d="M36700 29260
L36700 28670
L36650 28760
L36590 28810
L36530 28840
" />
<path d="M37120 29040
L37570 29040
" />
<path d="M38110 28870
L38110 29260
" />
<path d="M37970 28640
L37830 29070
L38190 29070
" />
</g>
<g style="fill:#848400; fill-opacity:0.0; 
stroke:#848400; stroke-width:100; stroke-opacity:1; 
stroke-linecap:round; stroke-linejoin:round;">
<polyline fill="none;"
points="38420,29000
38710,29290
39000,29290
39000,28710
38710,28710
38420,29000
" /> 
</g>
<g style="fill:#848400; fill-opacity:0.0; 
stroke:#848400; stroke-width:60; stroke-opacity:1; 
stroke-linecap:round; stroke-linejoin:round;">
</g>
<g style="fill:#840084; fill-opacity:0.0; 
stroke:#840084; stroke-width:60; stroke-opacity:1; 
stroke-linecap:round; stroke-linejoin:round;">
<path d="M42000 23500
L47000 23500
L47000 26000
L42000 26000
L42000 23500
" />
</g>
<g style="fill:#008484; fill-opacity:0.0; 
stroke:#008484; stroke-width:60; stroke-opacity:1; 
stroke-linecap:round; stroke-linejoin:round;">
</g>
<g style="fill:#000000; fill-opacity:0.0; 
stroke:#000000; stroke-width:60; stroke-opacity:1; 
stroke-linecap:round; stroke-linejoin:round;">
<path d="M42140 23260
L42420 23260
" />
<path d="M42080 23430
L42280 22840
L42470 23430
" />
<path d="M42950 23430
L42670 23430
L42670 22840
" />
<path d="M43120 23260
L43400 23260
" />
<path d="M43060 23430
L43260 22840
L43460 23430
" />
<path d="M43990 23430
L43800 23150
" />
<path d="M43650 23430
L43650 22840
L43880 22840
L43940 22870
L43960 22890
L43990 22950
L43990 23030
L43960 23090
L43940 23120
L43880 23150
L43650 23150
" />
<path d="M44240 23430
L44240 22840
L44440 23260
L44640 22840
L44640 23430
" />
</g>
<g style="fill:#848400; fill-opacity:0.0; 
stroke:#848400; stroke-width:60; stroke-opacity:1; 
stroke-linecap:round; stroke-linejoin:round;">
</g>
<g style="fill:#000000; fill-opacity:0.0; 
stroke:#000000; stroke-width:60; stroke-opacity:1; 
stroke-linecap:round; stroke-linejoin:round;">
<path d="M42140 26430
L42420 26430
" />
<path d="M42080 26600
L42280 26010
L42470 26600
" />
<path d="M42950 26600
L42670 26600
L42670 26010
" />
<path d="M43120 26430
L43400 26430
" />
<path d="M43060 26600
L43260 26010
L43460 26600
" />
<path d="M43990 26600
L43800 26320
" />
<path d="M43650 26600
L43650 26010
L43880 26010
L43940 26040
L43960 26060
L43990 26120
L43990 26200
L43960 26260
L43940 26290
L43880 26320
L43650 26320
" />
<path d="M44240 26600
L44240 26010
L44440 26430
L44640 26010
L44640 26600
" />
<path d="M44920 26540
L44950 26570
L44920 26600
L44890 26570
L44920 26540
L44920 26600
" />
<path d="M45170 26570
L45230 26600
L45340 26600
L45400 26570
L45420 26510
L45420 26480
L45400 26430
L45340 26400
L45260 26400
L45200 26370
L45170 26320
L45170 26290
L45200 26230
L45260 26200
L45340 26200
L45400 26230
" />
<path d="M45930 26570
L45870 26600
L45760 26600
L45710 26570
L45680 26540
L45650 26480
L45650 26320
L45680 26260
L45710 26230
L45760 26200
L45870 26200
L45930 26230
" />
<path d="M46180 26600
L46180 26010
" />
<path d="M46440 26600
L46440 26290
L46410 26230
L46350 26200
L46270 26200
L46210 26230
L46180 26260
" />
</g>
<g style="fill:#840084; fill-opacity:0.0; 
stroke:#840084; stroke-width:60; stroke-opacity:1; 
stroke-linecap:round; stroke-linejoin:round;">
</g>
<g style="fill:#848400; fill-opacity:0.0; 
stroke:#848400; stroke-width:60; stroke-opacity:1; 
stroke-linecap:round; stroke-linejoin:round;">
<path d="M43160 23700
L43110 23670
L43020 23670
L42940 23700
L42880 23760
L42860 23810
L42830 23920
L42830 24010
L42860 24120
L42880 24180
L42940 24230
L43020 24260
L43080 24260
L43160 24230
L43190 24210
L43190 24010
L43080 24010
" />
<path d="M43450 24260
L43450 23670
L43780 24260
L43780 23670
" />
<path d="M44060 24260
L44060 23670
L44200 23670
L44290 23700
L44340 23760
L44370 23810
L44400 23920
L44400 24010
L44370 24120
L44340 24180
L44290 24230
L44200 24260
L44060 24260
" />
</g>
<g style="fill:#848400; fill-opacity:0.0; 
stroke:#848400; stroke-width:100; stroke-opacity:1; 
stroke-linecap:round; stroke-linejoin:round;">
<polyline fill="none;"
points="42580,24000
42290,23710
42000,23710
42000,24290
42290,24290
42580,24000
" /> 
</g>
<g style="fill:#848400; fill-opacity:0.0; 
stroke:#848400; stroke-width:60; stroke-opacity:1; 
stroke-linecap:round; stroke-linejoin:round;">
<path d="M43190 25710
L43160 25730
L43080 25760
L43020 25760
L42940 25730
L42880 25680
L42860 25620
L42830 25510
L42830 25420
L42860 25310
L42880 25260
L42940 25200
L43020 25170
L43080 25170
L43160 25200
L43190 25230
" />
<path d="M43450 25450
L43640 25450
" />
<path d="M43730 25760
L43450 25760
L43450 25170
L43730 25170
" />
<path d="M44260 25760
L43980 25760
L43980 25170
" />
<path d="M44740 25760
L44460 25760
L44460 25170
" />
<path d="M44910 25730
L44990 25760
L45130 25760
L45190 25730
L45220 25710
L45240 25650
L45240 25590
L45220 25540
L45190 25510
L45130 25480
L45020 25450
L44960 25420
L44930 25400
L44910 25340
L44910 25280
L44930 25230
L44960 25200
L45020 25170
L45160 25170
L45240 25200
" />
</g>
<g style="fill:#848400; fill-opacity:0.0; 
stroke:#848400; stroke-width:100; stroke-opacity:1; 
stroke-linecap:round; stroke-linejoin:round;">
<polyline fill="none;"
points="42580,25500
42290,25210
42000,25210
42000,25790
42290,25790
42580,25500
" /> 
</g>
<g style="fill:#848400; fill-opacity:0.0; 
stroke:#848400; stroke-width:60; stroke-opacity:1; 
stroke-linecap:round; stroke-linejoin:round;">
</g>
<g style="fill:#008400; fill-opacity:0.0; 
stroke:#008400; stroke-width:60; stroke-opacity:1; 
stroke-linecap:round; stroke-linejoin:round;">
<path d="M39000 28000
L40500 28000
" />
<path d="M40500 28000
L40500 24000
" />
<path d="M40500 24000
L42000 24000
" />
<path d="M42000 25500
L41000 25500
" />
<path d="M41000 25500
L41000 29000
" />
<path d="M41000 29000
L39000 29000
" />
</g>
<g style="fill:#008400; fill-opacity:0.0; 
stroke:#008400; stroke-width:0; stroke-opacity:1; 
stroke-linecap:round; stroke-linejoin:round;">
</g>
<g style="fill:#840000; fill-opacity:0.0; 
stroke:#840000; stroke-width:0; stroke-opacity:1; 
stroke-linecap:round; stroke-linejoin:round;">
</g>
<g style="fill:#840000; fill-opacity:0.0; 
stroke:#840000; stroke-width:60; stroke-opacity:1; 
stroke-linecap:round; stroke-linejoin:round;">
<circle cx="42700" cy="31500" r="200" /> 
<circle cx="44300" cy="31500" r="200" /> 
<polyline fill="none;"
points="42900,31400
44100,30800
" /> 
<path d="M42500 31500
L41500 31500
" />
<path d="M42140 32070
L41850 32070
" />
<path d="M42000 32070
L42000 31570
L41950 31640
L41900 31690
L41850 31710
" />
<path d="M44500 31500
L45500 31500
" />
<path d="M44850 31620
L44880 31600
L44920 31570
L45040 31570
L45090 31600
L45110 31620
L45140 31670
L45140 31710
L45110 31790
L44830 32070
L45140 32070
" />
</g>
<g style="fill:#008484; fill-opacity:0.0; 
stroke:#008484; stroke-width:60; stroke-opacity:1; 
stroke-linecap:round; stroke-linejoin:round;">
<path d="M42210 30310
L42210 29810
L42380 30170
L42540 29810
L42540 30310
" />
<path d="M42760 30170
L43000 30170
" />
<path d="M42710 30310
L42880 29810
L43040 30310
" />
<path d="M43210 30310
L43210 29810
" />
<path d="M43450 30310
L43450 29810
L43730 30310
L43730 29810
" />
<path d="M43950 30290
L44020 30310
L44140 30310
L44190 30290
L44210 30260
L44230 30220
L44230 30170
L44210 30120
L44190 30100
L44140 30070
L44040 30050
L44000 30030
L43970 30000
L43950 29950
L43950 29910
L43970 29860
L44000 29840
L44040 29810
L44160 29810
L44230 29840
" />
<path d="M44400 29810
L44520 30310
L44610 29950
L44710 30310
L44830 29810
" />
</g>
<g style="fill:#008400; fill-opacity:0.0; 
stroke:#008400; stroke-width:60; stroke-opacity:1; 
stroke-linecap:round; stroke-linejoin:round;">
<path d="M39000 31500
L41500 31500
" />
<path d="M48500 31500
L50000 31500
" />
<path d="M43500 33000
L43500 32500
" />
<path d="M43500 32500
L39000 32500
" />
</g>
<g style="fill:#008400; fill-opacity:0.0; 
stroke:#008400; stroke-width:0; stroke-opacity:1; 
stroke-linecap:round; stroke-linejoin:round;">
</g>
<g style="fill:#840000; fill-opacity:0.0; 
stroke:#840000; stroke-width:0; stroke-opacity:1; 
stroke-linecap:round; stroke-linejoin:round;">
</g>
<g style="fill:#840000; fill-opacity:0.0; 
stroke:#840000; stroke-width:100; stroke-opacity:1; 
stroke-linecap:round; stroke-linejoin:round;">
<rect x="46000" y="31200" width="2000" height="600" rx="0" />
</g>
<g style="fill:#840000; fill-opacity:0.0; 
stroke:#840000; stroke-width:60; stroke-opacity:1; 
stroke-linecap:round; stroke-linejoin:round;">
<polyline fill="none;"
points="46000,31500
48000,31500
" /> 
<polyline fill="none;"
points="46000,32100
46400,32100
47600,30900
48000,30900
" /> 
<path d="M46000 31500
L45500 31500
" />
<path d="M48000 31500
L48500 31500
" />
</g>
<g style="fill:#008484; fill-opacity:0.0; 
stroke:#008484; stroke-width:60; stroke-opacity:1; 
stroke-linecap:round; stroke-linejoin:round;">
<path d="M46830 29180
L46660 29180
" />
<path d="M46660 29440
L46660 28940
L46900 28940
" />
<path d="M47350 29440
L47070 29440
" />
<path d="M47210 29440
L47210 28940
L47160 29010
L47110 29060
L47070 29080
" />
<path d="M46640 29850
L46540 29850
L46500 29880
L46470 29900
L46420 29970
L46400 30070
L46400 30260
L46420 30300
L46450 30330
L46500 30350
L46590 30350
L46640 30330
L46660 30300
L46690 30260
L46690 30140
L46660 30090
L46640 30070
L46590 30040
L46500 30040
L46450 30070
L46420 30090
L46400 30140
" />
<path d="M47000 29850
L47040 29850
L47090 29880
L47110 29900
L47140 29950
L47160 30040
L47160 30160
L47140 30260
L47110 30300
L47090 30330
L47040 30350
L47000 30350
L46950 30330
L46920 30300
L46900 30260
L46880 30160
L46880 30040
L46900 29950
L46920 29900
L46950 29880
L47000 29850
" />
<path d="M47350 30210
L47590 30210
" />
<path d="M47300 30350
L47470 29850
L47640 30350
" />
</g>
<g style="fill:#008400; fill-opacity:0.0; 
stroke:#008400; stroke-width:60; stroke-opacity:1; 
stroke-linecap:round; stroke-linejoin:round;">
<path d="M43500 33000
L50000 33000
" />
</g>
<g style="fill:#840084; fill-opacity:0.0; 
stroke:#840084; stroke-width:60; stroke-opacity:1; 
stroke-linecap:round; stroke-linejoin:round;">
<path d="M61500 25000
L68000 25000
L68000 29000
L61500 29000
L61500 25000
" />
</g>
<g style="fill:#008484; fill-opacity:0.0; 
stroke:#008484; stroke-width:60; stroke-opacity:1; 
stroke-linecap:round; stroke-linejoin:round;">
</g>
<g style="fill:#000000; fill-opacity:0.0; 
stroke:#000000; stroke-width:60; stroke-opacity:1; 
stroke-linecap:round; stroke-linejoin:round;">
<path d="M61950 24340
L61670 24340
L61640 24620
L61670 24590
L61720 24560
L61860 24560
L61920 24590
L61950 24620
L61970 24670
L61970 24810
L61950 24870
L61920 24900
L61860 24930
L61720 24930
L61670 24900
L61640 24870
" />
<path d="M62140 24340
L62340 24930
L62540 24340
" />
<path d="M62930 24620
L63010 24650
L63040 24670
L63070 24730
L63070 24810
L63040 24870
L63010 24900
L62960 24930
L62730 24930
L62730 24340
L62930 24340
L62990 24370
L63010 24390
L63040 24450
L63040 24510
L63010 24560
L62990 24590
L62930 24620
L62730 24620
" />
<path d="M63320 24340
L63320 24810
L63350 24870
L63380 24900
L63440 24930
L63550 24930
L63600 24900
L63630 24870
L63660 24810
L63660 24340
" />
<path d="M64280 24870
L64250 24900
L64170 24930
L64110 24930
L64030 24900
L63970 24840
L63940 24790
L63910 24670
L63910 24590
L63940 24480
L63970 24420
L64030 24370
L64110 24340
L64170 24340
L64250 24370
L64280 24390
" />
<path d="M64530 24930
L64530 24340
" />
<path d="M64870 24930
L64620 24590
" />
<path d="M64870 24340
L64530 24670
" />
</g>
<g style="fill:#848400; fill-opacity:0.0; 
stroke:#848400; stroke-width:60; stroke-opacity:1; 
stroke-linecap:round; stroke-linejoin:round;">
</g>
<g style="fill:#000000; fill-opacity:0.0; 
stroke:#000000; stroke-width:60; stroke-opacity:1; 
stroke-linecap:round; stroke-linejoin:round;">
<path d="M61950 29010
L61670 29010
L61640 29290
L61670 29260
L61720 29230
L61860 29230
L61920 29260
L61950 29290
L61970 29340
L61970 29480
L61950 29540
L61920 29570
L61860 29600
L61720 29600
L61670 29570
L61640 29540
" />
<path d="M62140 29010
L62340 29600
L62540 29010
" />
<path d="M62930 29290
L63010 29320
L63040 29340
L63070 29400
L63070 29480
L63040 29540
L63010 29570
L62960 29600
L62730 29600
L62730 29010
L62930 29010
L62990 29040
L63010 29060
L63040 29120
L63040 29180
L63010 29230
L62990 29260
L62930 29290
L62730 29290
" />
<path d="M63320 29010
L63320 29480
L63350 29540
L63380 29570
L63440 29600
L63550 29600
L63600 29570
L63630 29540
L63660 29480
L63660 29010
" />
<path d="M64280 29540
L64250 29570
L64170 29600
L64110 29600
L64030 29570
L63970 29510
L63940 29460
L63910 29340
L63910 29260
L63940 29150
L63970 29090
L64030 29040
L64110 29010
L64170 29010
L64250 29040
L64280 29060
" />
<path d="M64530 29600
L64530 29010
" />
<path d="M64870 29600
L64620 29260
" />
<path d="M64870 29010
L64530 29340
" />
<path d="M65120 29540
L65150 29570
L65120 29600
L65090 29570
L65120 29540
L65120 29600
" />
<path d="M65370 29570
L65430 29600
L65540 29600
L65600 29570
L65630 29510
L65630 29480
L65600 29430
L65540 29400
L65460 29400
L65400 29370
L65370 29320
L65370 29290
L65400 29230
L65460 29200
L65540 29200
L65600 29230
" />
<path d="M66130 29570
L66080 29600
L65960 29600
L65910 29570
L65880 29540
L65850 29480
L65850 29320
L65880 29260
L65910 29230
L65960 29200
L66080 29200
L66130 29230
" />
<path d="M66390 29600
L66390 29010
" />
<path d="M66640 29600
L66640 29290
L66610 29230
L66550 29200
L66470 29200
L66410 29230
L66390 29260
" />
</g>
<g style="fill:#840084; fill-opacity:0.0; 
stroke:#840084; stroke-width:60; stroke-opacity:1; 
stroke-linecap:round; stroke-linejoin:round;">
</g>
<g style="fill:#848400; fill-opacity:0.0; 
stroke:#848400; stroke-width:60; stroke-opacity:1; 
stroke-linecap:round; stroke-linejoin:round;">
<path d="M62660 25760
L62330 25760
" />
<path d="M62500 25760
L62500 25170
L62440 25260
L62380 25310
L62330 25340
" />
<path d="M62890 25230
L62920 25200
L62970 25170
L63110 25170
L63170 25200
L63200 25230
L63230 25280
L63230 25340
L63200 25420
L62860 25760
L63230 25760
" />
<path d="M63400 25170
L63590 25760
L63790 25170
" />
<path d="M63990 25540
L64430 25540
" />
<path d="M64210 25760
L64210 25310
" />
</g>
<g style="fill:#848400; fill-opacity:0.0; 
stroke:#848400; stroke-width:100; stroke-opacity:1; 
stroke-linecap:round; stroke-linejoin:round;">
<polyline fill="none;"
points="62080,25500
61790,25210
61500,25210
61500,25790
61790,25790
62080,25500
" /> 
</g>
<g style="fill:#848400; fill-opacity:0.0; 
stroke:#848400; stroke-width:60; stroke-opacity:1; 
stroke-linecap:round; stroke-linejoin:round;">
<path d="M62660 28760
L62330 28760
" />
<path d="M62500 28760
L62500 28170
L62440 28260
L62380 28310
L62330 28340
" />
<path d="M62890 28230
L62920 28200
L62970 28170
L63110 28170
L63170 28200
L63200 28230
L63230 28280
L63230 28340
L63200 28420
L62860 28760
L63230 28760
" />
<path d="M63400 28170
L63590 28760
L63790 28170
" />
<path d="M63990 28540
L64430 28540
" />
</g>
<g style="fill:#848400; fill-opacity:0.0; 
stroke:#848400; stroke-width:100; stroke-opacity:1; 
stroke-linecap:round; stroke-linejoin:round;">
<polyline fill="none;"
points="62080,28500
61790,28210
61500,28210
61500,28790
61790,28790
62080,28500
" /> 
</g>
<g style="fill:#848400; fill-opacity:0.0; 
stroke:#848400; stroke-width:60; stroke-opacity:1; 
stroke-linecap:round; stroke-linejoin:round;">
<path d="M65900 25670
L65620 25670
L65590 25950
L65620 25920
L65670 25900
L65810 25900
L65870 25920
L65900 25950
L65930 26010
L65930 26150
L65900 26210
L65870 26230
L65810 26260
L65670 26260
L65620 26230
L65590 26210
" />
<path d="M66100 25670
L66290 26260
L66490 25670
" />
<path d="M66690 26040
L67130 26040
" />
<path d="M66910 26260
L66910 25810
" />
</g>
<g style="fill:#848400; fill-opacity:0.0; 
stroke:#848400; stroke-width:100; stroke-opacity:1; 
stroke-linecap:round; stroke-linejoin:round;">
<polyline fill="none;"
points="67420,26000
67710,26290
68000,26290
68000,25710
67710,25710
67420,26000
" /> 
</g>
<g style="fill:#848400; fill-opacity:0.0; 
stroke:#848400; stroke-width:60; stroke-opacity:1; 
stroke-linecap:round; stroke-linejoin:round;">
<path d="M65900 27670
L65620 27670
L65590 27950
L65620 27920
L65670 27900
L65810 27900
L65870 27920
L65900 27950
L65930 28010
L65930 28150
L65900 28210
L65870 28230
L65810 28260
L65670 28260
L65620 28230
L65590 28210
" />
<path d="M66100 27670
L66290 28260
L66490 27670
" />
<path d="M66690 28040
L67130 28040
" />
</g>
<g style="fill:#848400; fill-opacity:0.0; 
stroke:#848400; stroke-width:100; stroke-opacity:1; 
stroke-linecap:round; stroke-linejoin:round;">
<polyline fill="none;"
points="67420,28000
67710,28290
68000,28290
68000,27710
67710,27710
67420,28000
" /> 
</g>
<g style="fill:#848400; fill-opacity:0.0; 
stroke:#848400; stroke-width:60; stroke-opacity:1; 
stroke-linecap:round; stroke-linejoin:round;">
</g>
<g style="fill:#840084; fill-opacity:0.0; 
stroke:#840084; stroke-width:60; stroke-opacity:1; 
stroke-linecap:round; stroke-linejoin:round;">
<path d="M50000 31000
L55000 31000
L55000 33500
L50000 33500
L50000 31000
" />
</g>
<g style="fill:#008484; fill-opacity:0.0; 
stroke:#008484; stroke-width:60; stroke-opacity:1; 
stroke-linecap:round; stroke-linejoin:round;">
</g>
<g style="fill:#000000; fill-opacity:0.0; 
stroke:#000000; stroke-width:60; stroke-opacity:1; 
stroke-linecap:round; stroke-linejoin:round;">
<path d="M50170 30930
L50170 30340
L50360 30760
L50560 30340
L50560 30930
" />
<path d="M50840 30620
L51040 30620
" />
<path d="M51120 30930
L50840 30930
L50840 30340
L51120 30340
" />
<path d="M51290 30340
L51630 30340
" />
<path d="M51460 30930
L51460 30340
" />
<path d="M51820 30620
L52020 30620
" />
<path d="M52100 30930
L51820 30930
L51820 30340
L52100 30340
" />
<path d="M52690 30930
L52500 30650
" />
<path d="M52360 30930
L52360 30340
L52580 30340
L52640 30370
L52670 30390
L52690 30450
L52690 30530
L52670 30590
L52640 30620
L52580 30650
L52360 30650
" />
</g>
<g style="fill:#848400; fill-opacity:0.0; 
stroke:#848400; stroke-width:60; stroke-opacity:1; 
stroke-linecap:round; stroke-linejoin:round;">
</g>
<g style="fill:#000000; fill-opacity:0.0; 
stroke:#000000; stroke-width:60; stroke-opacity:1; 
stroke-linecap:round; stroke-linejoin:round;">
<path d="M50170 34100
L50170 33510
L50360 33930
L50560 33510
L50560 34100
" />
<path d="M50840 33790
L51040 33790
" />
<path d="M51120 34100
L50840 34100
L50840 33510
L51120 33510
" />
<path d="M51290 33510
L51630 33510
" />
<path d="M51460 34100
L51460 33510
" />
<path d="M51820 33790
L52020 33790
" />
<path d="M52100 34100
L51820 34100
L51820 33510
L52100 33510
" />
<path d="M52690 34100
L52500 33820
" />
<path d="M52360 34100
L52360 33510
L52580 33510
L52640 33540
L52670 33560
L52690 33620
L52690 33700
L52670 33760
L52640 33790
L52580 33820
L52360 33820
" />
<path d="M52950 34040
L52980 34070
L52950 34100
L52920 34070
L52950 34040
L52950 34100
" />
<path d="M53200 34070
L53260 34100
L53370 34100
L53420 34070
L53450 34010
L53450 33980
L53420 33930
L53370 33900
L53280 33900
L53230 33870
L53200 33820
L53200 33790
L53230 33730
L53280 33700
L53370 33700
L53420 33730
" />
<path d="M53960 34070
L53900 34100
L53790 34100
L53730 34070
L53710 34040
L53680 33980
L53680 33820
L53710 33760
L53730 33730
L53790 33700
L53900 33700
L53960 33730
" />
<path d="M54210 34100
L54210 33510
" />
<path d="M54460 34100
L54460 33790
L54440 33730
L54380 33700
L54300 33700
L54240 33730
L54210 33760
" />
</g>
<g style="fill:#840084; fill-opacity:0.0; 
stroke:#840084; stroke-width:60; stroke-opacity:1; 
stroke-linecap:round; stroke-linejoin:round;">
</g>
<g style="fill:#848400; fill-opacity:0.0; 
stroke:#848400; stroke-width:60; stroke-opacity:1; 
stroke-linecap:round; stroke-linejoin:round;">
<path d="M50770 31170
L50970 31760
L51160 31170
" />
<path d="M51360 31540
L51810 31540
" />
<path d="M51590 31760
L51590 31310
" />
</g>
<g style="fill:#848400; fill-opacity:0.0; 
stroke:#848400; stroke-width:100; stroke-opacity:1; 
stroke-linecap:round; stroke-linejoin:round;">
<polyline fill="none;"
points="50580,31500
50290,31210
50000,31210
50000,31790
50290,31790
50580,31500
" /> 
</g>
<g style="fill:#848400; fill-opacity:0.0; 
stroke:#848400; stroke-width:60; stroke-opacity:1; 
stroke-linecap:round; stroke-linejoin:round;">
<path d="M50770 32670
L50970 33260
L51160 32670
" />
<path d="M51360 33040
L51810 33040
" />
</g>
<g style="fill:#848400; fill-opacity:0.0; 
stroke:#848400; stroke-width:100; stroke-opacity:1; 
stroke-linecap:round; stroke-linejoin:round;">
<polyline fill="none;"
points="50580,33000
50290,32710
50000,32710
50000,33290
50290,33290
50580,33000
" /> 
</g>
<g style="fill:#848400; fill-opacity:0.0; 
stroke:#848400; stroke-width:60; stroke-opacity:1; 
stroke-linecap:round; stroke-linejoin:round;">
<path d="M53100 31170
L53290 31760
L53490 31170
" />
<path d="M53690 31540
L54130 31540
" />
<path d="M53910 31760
L53910 31310
" />
</g>
<g style="fill:#848400; fill-opacity:0.0; 
stroke:#848400; stroke-width:100; stroke-opacity:1; 
stroke-linecap:round; stroke-linejoin:round;">
<polyline fill="none;"
points="54420,31500
54710,31790
55000,31790
55000,31210
54710,31210
54420,31500
" /> 
</g>
<g style="fill:#848400; fill-opacity:0.0; 
stroke:#848400; stroke-width:60; stroke-opacity:1; 
stroke-linecap:round; stroke-linejoin:round;">
<path d="M53100 32670
L53290 33260
L53490 32670
" />
<path d="M53690 33040
L54130 33040
" />
</g>
<g style="fill:#848400; fill-opacity:0.0; 
stroke:#848400; stroke-width:100; stroke-opacity:1; 
stroke-linecap:round; stroke-linejoin:round;">
<polyline fill="none;"
points="54420,33000
54710,33290
55000,33290
55000,32710
54710,32710
54420,33000
" /> 
</g>
<g style="fill:#848400; fill-opacity:0.0; 
stroke:#848400; stroke-width:60; stroke-opacity:1; 
stroke-linecap:round; stroke-linejoin:round;">
</g>
<g style="fill:#008400; fill-opacity:0.0; 
stroke:#008400; stroke-width:60; stroke-opacity:1; 
stroke-linecap:round; stroke-linejoin:round;">
<path d="M55000 31500
L57000 31500
" />
<path d="M55000 33000
L58000 33000
" />
<path d="M57000 31500
L57000 25500
" />
<path d="M58000 28500
L58000 33000
" />
</g>
<g style="fill:#840084; fill-opacity:0.0; 
stroke:#840084; stroke-width:60; stroke-opacity:1; 
stroke-linecap:round; stroke-linejoin:round;">
<path d="M63000 42500
L72000 42500
L72000 47000
L63000 47000
L63000 42500
" />
</g>
<g style="fill:#008484; fill-opacity:0.0; 
stroke:#008484; stroke-width:60; stroke-opacity:1; 
stroke-linecap:round; stroke-linejoin:round;">
</g>
<g style="fill:#000000; fill-opacity:0.0; 
stroke:#000000; stroke-width:60; stroke-opacity:1; 
stroke-linecap:round; stroke-linejoin:round;">
<path d="M63170 42430
L63170 41840
L63360 42260
L63560 41840
L63560 42430
" />
<path d="M64180 42370
L64150 42400
L64060 42430
L64010 42430
L63920 42400
L63870 42340
L63840 42290
L63810 42170
L63810 42090
L63840 41980
L63870 41920
L63920 41870
L64010 41840
L64060 41840
L64150 41870
L64180 41890
" />
<path d="M64540 41840
L64650 41840
L64710 41870
L64770 41920
L64800 42030
L64800 42230
L64770 42340
L64710 42400
L64650 42430
L64540 42430
L64490 42400
L64430 42340
L64400 42230
L64400 42030
L64430 41920
L64490 41870
L64540 41840
" />
<path d="M65050 42430
L65050 41840
L65390 42430
L65390 41840
" />
<path d="M65580 41840
L65920 41840
" />
<path d="M65750 42430
L65750 41840
" />
<path d="M66450 42430
L66260 42150
" />
<path d="M66120 42430
L66120 41840
L66340 41840
L66400 41870
L66420 41890
L66450 41950
L66450 42030
L66420 42090
L66400 42120
L66340 42150
L66120 42150
" />
<path d="M66820 41840
L66930 41840
L66990 41870
L67040 41920
L67070 42030
L67070 42230
L67040 42340
L66990 42400
L66930 42430
L66820 42430
L66760 42400
L66710 42340
L66680 42230
L66680 42030
L66710 41920
L66760 41870
L66820 41840
" />
<path d="M67600 42430
L67320 42430
L67320 41840
" />
</g>
<g style="fill:#848400; fill-opacity:0.0; 
stroke:#848400; stroke-width:60; stroke-opacity:1; 
stroke-linecap:round; stroke-linejoin:round;">
</g>
<g style="fill:#000000; fill-opacity:0.0; 
stroke:#000000; stroke-width:60; stroke-opacity:1; 
stroke-linecap:round; stroke-linejoin:round;">
<path d="M63170 47600
L63170 47010
L63360 47430
L63560 47010
L63560 47600
" />
<path d="M64180 47540
L64150 47570
L64060 47600
L64010 47600
L63920 47570
L63870 47510
L63840 47460
L63810 47340
L63810 47260
L63840 47150
L63870 47090
L63920 47040
L64010 47010
L64060 47010
L64150 47040
L64180 47060
" />
<path d="M64540 47010
L64650 47010
L64710 47040
L64770 47090
L64800 47200
L64800 47400
L64770 47510
L64710 47570
L64650 47600
L64540 47600
L64490 47570
L64430 47510
L64400 47400
L64400 47200
L64430 47090
L64490 47040
L64540 47010
" />
<path d="M65050 47600
L65050 47010
L65390 47600
L65390 47010
" />
<path d="M65580 47010
L65920 47010
" />
<path d="M65750 47600
L65750 47010
" />
<path d="M66450 47600
L66260 47320
" />
<path d="M66120 47600
L66120 47010
L66340 47010
L66400 47040
L66420 47060
L66450 47120
L66450 47200
L66420 47260
L66400 47290
L66340 47320
L66120 47320
" />
<path d="M66820 47010
L66930 47010
L66990 47040
L67040 47090
L67070 47200
L67070 47400
L67040 47510
L66990 47570
L66930 47600
L66820 47600
L66760 47570
L66710 47510
L66680 47400
L66680 47200
L66710 47090
L66760 47040
L66820 47010
" />
<path d="M67600 47600
L67320 47600
L67320 47010
" />
<path d="M67800 47540
L67830 47570
L67800 47600
L67770 47570
L67800 47540
L67800 47600
" />
<path d="M68050 47570
L68110 47600
L68220 47600
L68280 47570
L68310 47510
L68310 47480
L68280 47430
L68220 47400
L68140 47400
L68080 47370
L68050 47320
L68050 47290
L68080 47230
L68140 47200
L68220 47200
L68280 47230
" />
<path d="M68810 47570
L68760 47600
L68640 47600
L68590 47570
L68560 47540
L68530 47480
L68530 47320
L68560 47260
L68590 47230
L68640 47200
L68760 47200
L68810 47230
" />
<path d="M69070 47600
L69070 47010
" />
<path d="M69320 47600
L69320 47290
L69290 47230
L69230 47200
L69150 47200
L69090 47230
L69070 47260
" />
</g>
<g style="fill:#840084; fill-opacity:0.0; 
stroke:#840084; stroke-width:60; stroke-opacity:1; 
stroke-linecap:round; stroke-linejoin:round;">
</g>
<g style="fill:#848400; fill-opacity:0.0; 
stroke:#848400; stroke-width:60; stroke-opacity:1; 
stroke-linecap:round; stroke-linejoin:round;">
<path d="M63770 43170
L63970 43760
L64160 43170
" />
<path d="M64360 43540
L64810 43540
" />
<path d="M64590 43760
L64590 43310
" />
</g>
<g style="fill:#848400; fill-opacity:0.0; 
stroke:#848400; stroke-width:100; stroke-opacity:1; 
stroke-linecap:round; stroke-linejoin:round;">
<polyline fill="none;"
points="63580,43500
63290,43210
63000,43210
63000,43790
63290,43790
63580,43500
" /> 
</g>
<g style="fill:#848400; fill-opacity:0.0; 
stroke:#848400; stroke-width:60; stroke-opacity:1; 
stroke-linecap:round; stroke-linejoin:round;">
<path d="M63770 45670
L63970 46260
L64160 45670
" />
<path d="M64360 46040
L64810 46040
" />
</g>
<g style="fill:#848400; fill-opacity:0.0; 
stroke:#848400; stroke-width:100; stroke-opacity:1; 
stroke-linecap:round; stroke-linejoin:round;">
<polyline fill="none;"
points="63580,46000
63290,45710
63000,45710
63000,46290
63290,46290
63580,46000
" /> 
</g>
<g style="fill:#848400; fill-opacity:0.0; 
stroke:#848400; stroke-width:60; stroke-opacity:1; 
stroke-linecap:round; stroke-linejoin:round;">
<path d="M68410 43170
L68610 43760
L68800 43170
" />
<path d="M69110 43170
L69220 43170
L69280 43200
L69340 43260
L69360 43370
L69360 43570
L69340 43680
L69280 43730
L69220 43760
L69110 43760
L69060 43730
L69000 43680
L68970 43570
L68970 43370
L69000 43260
L69060 43200
L69110 43170
" />
<path d="M69620 43170
L69620 43650
L69650 43710
L69670 43730
L69730 43760
L69840 43760
L69900 43730
L69930 43710
L69950 43650
L69950 43170
" />
<path d="M70150 43170
L70490 43170
" />
<path d="M70320 43760
L70320 43170
" />
<path d="M70690 43540
L71130 43540
" />
<path d="M70910 43760
L70910 43310
" />
</g>
<g style="fill:#848400; fill-opacity:0.0; 
stroke:#848400; stroke-width:100; stroke-opacity:1; 
stroke-linecap:round; stroke-linejoin:round;">
<polyline fill="none;"
points="71420,43500
71710,43790
72000,43790
72000,43210
71710,43210
71420,43500
" /> 
</g>
<g style="fill:#848400; fill-opacity:0.0; 
stroke:#848400; stroke-width:60; stroke-opacity:1; 
stroke-linecap:round; stroke-linejoin:round;">
<path d="M68410 45670
L68610 46260
L68800 45670
" />
<path d="M69110 45670
L69220 45670
L69280 45700
L69340 45760
L69360 45870
L69360 46070
L69340 46180
L69280 46230
L69220 46260
L69110 46260
L69060 46230
L69000 46180
L68970 46070
L68970 45870
L69000 45760
L69060 45700
L69110 45670
" />
<path d="M69620 45670
L69620 46150
L69650 46210
L69670 46230
L69730 46260
L69840 46260
L69900 46230
L69930 46210
L69950 46150
L69950 45670
" />
<path d="M70150 45670
L70490 45670
" />
<path d="M70320 46260
L70320 45670
" />
<path d="M70690 46040
L71130 46040
" />
<path d="M70910 46260
L70910 45810
" />
</g>
<g style="fill:#848400; fill-opacity:0.0; 
stroke:#848400; stroke-width:100; stroke-opacity:1; 
stroke-linecap:round; stroke-linejoin:round;">
<polyline fill="none;"
points="71420,46000
71710,46290
72000,46290
72000,45710
71710,45710
71420,46000
" /> 
</g>
<g style="fill:#848400; fill-opacity:0.0; 
stroke:#848400; stroke-width:60; stroke-opacity:1; 
stroke-linecap:round; stroke-linejoin:round;">
</g>
<g style="fill:#008400; fill-opacity:0.0; 
stroke:#008400; stroke-width:60; stroke-opacity:1; 
stroke-linecap:round; stroke-linejoin:round;">
<path d="M58000 33000
L58000 46000
" />
</g>
<g style="fill:#008400; fill-opacity:0.0; 
stroke:#008400; stroke-width:0; stroke-opacity:1; 
stroke-linecap:round; stroke-linejoin:round;">
</g>
<g style="fill:#008400; fill-opacity:1.0; 
stroke:#008400; stroke-width:100; stroke-opacity:1; 
stroke-linecap:round; stroke-linejoin:round;">
<circle cx="58000" cy="33000" r="200" /> 
</g>
<g style="fill:#008400; fill-opacity:1.0; 
stroke:#008400; stroke-width:60; stroke-opacity:1; 
stroke-linecap:round; stroke-linejoin:round;">
</g>
<g style="fill:#008400; fill-opacity:0.0; 
stroke:#008400; stroke-width:60; stroke-opacity:1; 
stroke-linecap:round; stroke-linejoin:round;">
<path d="M57000 31500
L57000 43500
" />
</g>
<g style="fill:#008400; fill-opacity:0.0; 
stroke:#008400; stroke-width:0; stroke-opacity:1; 
stroke-linecap:round; stroke-linejoin:round;">
</g>
<g style="fill:#008400; fill-opacity:1.0; 
stroke:#008400; stroke-width:100; stroke-opacity:1; 
stroke-linecap:round; stroke-linejoin:round;">
<circle cx="57000" cy="31500" r="200" /> 
</g>
<g style="fill:#008400; fill-opacity:1.0; 
stroke:#008400; stroke-width:60; stroke-opacity:1; 
stroke-linecap:round; stroke-linejoin:round;">
</g>
<g style="fill:#840084; fill-opacity:1.0; 
stroke:#840084; stroke-width:60; stroke-opacity:1; 
stroke-linecap:round; stroke-linejoin:round;">
</g>
<g style="fill:#840084; fill-opacity:0.0; 
stroke:#840084; stroke-width:60; stroke-opacity:1; 
stroke-linecap:round; stroke-linejoin:round;">
<path d="M72500 25000
L86000 25000
L86000 33000
L72500 33000
L72500 25000
" />
</g>
<g style="fill:#008484; fill-opacity:0.0; 
stroke:#008484; stroke-width:60; stroke-opacity:1; 
stroke-linecap:round; stroke-linejoin:round;">
</g>
<g style="fill:#000000; fill-opacity:0.0; 
stroke:#000000; stroke-width:60; stroke-opacity:1; 
stroke-linecap:round; stroke-linejoin:round;">
<path d="M73000 24930
L72810 24650
" />
<path d="M72670 24930
L72670 24340
L72890 24340
L72950 24370
L72970 24390
L73000 24450
L73000 24530
L72970 24590
L72950 24620
L72890 24650
L72670 24650
" />
<path d="M73230 24760
L73510 24760
" />
<path d="M73170 24930
L73370 24340
L73560 24930
" />
<path d="M73730 24900
L73820 24930
L73960 24930
L74010 24900
L74040 24870
L74070 24810
L74070 24760
L74040 24700
L74010 24670
L73960 24650
L73850 24620
L73790 24590
L73760 24560
L73730 24510
L73730 24450
L73760 24390
L73790 24370
L73850 24340
L73990 24340
L74070 24370
" />
<path d="M74320 24930
L74320 24340
L74550 24340
L74600 24370
L74630 24390
L74660 24450
L74660 24530
L74630 24590
L74600 24620
L74550 24650
L74320 24650
" />
<path d="M74910 24930
L74910 24340
" />
</g>
<g style="fill:#848400; fill-opacity:0.0; 
stroke:#848400; stroke-width:60; stroke-opacity:1; 
stroke-linecap:round; stroke-linejoin:round;">
</g>
<g style="fill:#000000; fill-opacity:0.0; 
stroke:#000000; stroke-width:60; stroke-opacity:1; 
stroke-linecap:round; stroke-linejoin:round;">
<path d="M73000 33600
L72810 33320
" />
<path d="M72670 33600
L72670 33010
L72890 33010
L72950 33040
L72970 33060
L73000 33120
L73000 33200
L72970 33260
L72950 33290
L72890 33320
L72670 33320
" />
<path d="M73230 33430
L73510 33430
" />
<path d="M73170 33600
L73370 33010
L73560 33600
" />
<path d="M73730 33570
L73820 33600
L73960 33600
L74010 33570
L74040 33540
L74070 33480
L74070 33430
L74040 33370
L74010 33340
L73960 33320
L73850 33290
L73790 33260
L73760 33230
L73730 33180
L73730 33120
L73760 33060
L73790 33040
L73850 33010
L73990 33010
L74070 33040
" />
<path d="M74320 33600
L74320 33010
L74550 33010
L74600 33040
L74630 33060
L74660 33120
L74660 33200
L74630 33260
L74600 33290
L74550 33320
L74320 33320
" />
<path d="M74910 33600
L74910 33010
" />
<path d="M75190 33540
L75220 33570
L75190 33600
L75170 33570
L75190 33540
L75190 33600
" />
<path d="M75450 33570
L75500 33600
L75620 33600
L75670 33570
L75700 33510
L75700 33480
L75670 33430
L75620 33400
L75530 33400
L75480 33370
L75450 33320
L75450 33290
L75480 33230
L75530 33200
L75620 33200
L75670 33230
" />
<path d="M76210 33570
L76150 33600
L76040 33600
L75980 33570
L75950 33540
L75920 33480
L75920 33320
L75950 33260
L75980 33230
L76040 33200
L76150 33200
L76210 33230
" />
<path d="M76460 33600
L76460 33010
" />
<path d="M76710 33600
L76710 33290
L76680 33230
L76630 33200
L76540 33200
L76490 33230
L76460 33260
" />
</g>
<g style="fill:#840084; fill-opacity:0.0; 
stroke:#840084; stroke-width:60; stroke-opacity:1; 
stroke-linecap:round; stroke-linejoin:round;">
</g>
<g style="fill:#848400; fill-opacity:0.0; 
stroke:#848400; stroke-width:60; stroke-opacity:1; 
stroke-linecap:round; stroke-linejoin:round;">
<path d="M73640 25670
L73360 25670
L73330 25950
L73360 25920
L73410 25900
L73550 25900
L73610 25920
L73640 25950
L73660 26010
L73660 26150
L73640 26210
L73610 26230
L73550 26260
L73410 26260
L73360 26230
L73330 26210
" />
<path d="M73830 25670
L74030 26260
L74230 25670
" />
<path d="M74420 26040
L74870 26040
" />
<path d="M74650 26260
L74650 25810
" />
</g>
<g style="fill:#848400; fill-opacity:0.0; 
stroke:#848400; stroke-width:100; stroke-opacity:1; 
stroke-linecap:round; stroke-linejoin:round;">
<polyline fill="none;"
points="73080,26000
72790,25710
72500,25710
72500,26290
72790,26290
73080,26000
" /> 
</g>
<g style="fill:#848400; fill-opacity:0.0; 
stroke:#848400; stroke-width:60; stroke-opacity:1; 
stroke-linecap:round; stroke-linejoin:round;">
<path d="M73640 27670
L73360 27670
L73330 27950
L73360 27920
L73410 27900
L73550 27900
L73610 27920
L73640 27950
L73660 28010
L73660 28150
L73640 28210
L73610 28230
L73550 28260
L73410 28260
L73360 28230
L73330 28210
" />
<path d="M73830 27670
L74030 28260
L74230 27670
" />
<path d="M74420 28040
L74870 28040
" />
</g>
<g style="fill:#848400; fill-opacity:0.0; 
stroke:#848400; stroke-width:100; stroke-opacity:1; 
stroke-linecap:round; stroke-linejoin:round;">
<polyline fill="none;"
points="73080,28000
72790,27710
72500,27710
72500,28290
72790,28290
73080,28000
" /> 
</g>
<g style="fill:#848400; fill-opacity:0.0; 
stroke:#848400; stroke-width:60; stroke-opacity:1; 
stroke-linecap:round; stroke-linejoin:round;">
</g>
<g style="fill:#008400; fill-opacity:0.0; 
stroke:#008400; stroke-width:60; stroke-opacity:1; 
stroke-linecap:round; stroke-linejoin:round;">
<path d="M72500 28000
L65500 28000
" />
<path d="M65500 26000
L72500 26000
" />
</g>
<g style="fill:#840084; fill-opacity:0.0; 
stroke:#840084; stroke-width:60; stroke-opacity:1; 
stroke-linecap:round; stroke-linejoin:round;">
<path d="M76500 42500
L85000 42500
L85000 47000
L76500 47000
L76500 42500
" />
</g>
<g style="fill:#008484; fill-opacity:0.0; 
stroke:#008484; stroke-width:60; stroke-opacity:1; 
stroke-linecap:round; stroke-linejoin:round;">
</g>
<g style="fill:#000000; fill-opacity:0.0; 
stroke:#000000; stroke-width:60; stroke-opacity:1; 
stroke-linecap:round; stroke-linejoin:round;">
<path d="M76670 42430
L76670 41840
L76860 42260
L77060 41840
L77060 42430
" />
<path d="M77450 41840
L77560 41840
L77620 41870
L77680 41920
L77710 42030
L77710 42230
L77680 42340
L77620 42400
L77560 42430
L77450 42430
L77400 42400
L77340 42340
L77310 42230
L77310 42030
L77340 41920
L77400 41870
L77450 41840
" />
<path d="M77870 41840
L78210 41840
" />
<path d="M78040 42430
L78040 41840
" />
<path d="M78520 41840
L78630 41840
L78690 41870
L78740 41920
L78770 42030
L78770 42230
L78740 42340
L78690 42400
L78630 42430
L78520 42430
L78460 42400
L78410 42340
L78380 42230
L78380 42030
L78410 41920
L78460 41870
L78520 41840
" />
<path d="M79360 42430
L79170 42150
" />
<path d="M79030 42430
L79030 41840
L79250 41840
L79310 41870
L79330 41890
L79360 41950
L79360 42030
L79330 42090
L79310 42120
L79250 42150
L79030 42150
" />
</g>
<g style="fill:#848400; fill-opacity:0.0; 
stroke:#848400; stroke-width:60; stroke-opacity:1; 
stroke-linecap:round; stroke-linejoin:round;">
</g>
<g style="fill:#000000; fill-opacity:0.0; 
stroke:#000000; stroke-width:60; stroke-opacity:1; 
stroke-linecap:round; stroke-linejoin:round;">
<path d="M76670 47600
L76670 47010
L76860 47430
L77060 47010
L77060 47600
" />
<path d="M77450 47010
L77560 47010
L77620 47040
L77680 47090
L77710 47200
L77710 47400
L77680 47510
L77620 47570
L77560 47600
L77450 47600
L77400 47570
L77340 47510
L77310 47400
L77310 47200
L77340 47090
L77400 47040
L77450 47010
" />
<path d="M77870 47010
L78210 47010
" />
<path d="M78040 47600
L78040 47010
" />
<path d="M78520 47010
L78630 47010
L78690 47040
L78740 47090
L78770 47200
L78770 47400
L78740 47510
L78690 47570
L78630 47600
L78520 47600
L78460 47570
L78410 47510
L78380 47400
L78380 47200
L78410 47090
L78460 47040
L78520 47010
" />
<path d="M79360 47600
L79170 47320
" />
<path d="M79030 47600
L79030 47010
L79250 47010
L79310 47040
L79330 47060
L79360 47120
L79360 47200
L79330 47260
L79310 47290
L79250 47320
L79030 47320
" />
<path d="M79620 47540
L79640 47570
L79620 47600
L79590 47570
L79620 47540
L79620 47600
" />
<path d="M79870 47570
L79920 47600
L80040 47600
L80090 47570
L80120 47510
L80120 47480
L80090 47430
L80040 47400
L79950 47400
L79900 47370
L79870 47320
L79870 47290
L79900 47230
L79950 47200
L80040 47200
L80090 47230
" />
<path d="M80630 47570
L80570 47600
L80460 47600
L80400 47570
L80370 47540
L80350 47480
L80350 47320
L80370 47260
L80400 47230
L80460 47200
L80570 47200
L80630 47230
" />
<path d="M80880 47600
L80880 47010
" />
<path d="M81130 47600
L81130 47290
L81100 47230
L81050 47200
L80960 47200
L80910 47230
L80880 47260
" />
</g>
<g style="fill:#840084; fill-opacity:0.0; 
stroke:#840084; stroke-width:60; stroke-opacity:1; 
stroke-linecap:round; stroke-linejoin:round;">
</g>
<g style="fill:#848400; fill-opacity:0.0; 
stroke:#848400; stroke-width:60; stroke-opacity:1; 
stroke-linecap:round; stroke-linejoin:round;">
<path d="M77270 43170
L77470 43760
L77660 43170
" />
<path d="M77860 43540
L78310 43540
" />
<path d="M78090 43760
L78090 43310
" />
</g>
<g style="fill:#848400; fill-opacity:0.0; 
stroke:#848400; stroke-width:100; stroke-opacity:1; 
stroke-linecap:round; stroke-linejoin:round;">
<polyline fill="none;"
points="77080,43500
76790,43210
76500,43210
76500,43790
76790,43790
77080,43500
" /> 
</g>
<g style="fill:#848400; fill-opacity:0.0; 
stroke:#848400; stroke-width:60; stroke-opacity:1; 
stroke-linecap:round; stroke-linejoin:round;">
<path d="M77270 45670
L77470 46260
L77660 45670
" />
<path d="M77860 46040
L78310 46040
" />
</g>
<g style="fill:#848400; fill-opacity:0.0; 
stroke:#848400; stroke-width:100; stroke-opacity:1; 
stroke-linecap:round; stroke-linejoin:round;">
<polyline fill="none;"
points="77080,46000
76790,45710
76500,45710
76500,46290
76790,46290
77080,46000
" /> 
</g>
<g style="fill:#848400; fill-opacity:0.0; 
stroke:#848400; stroke-width:60; stroke-opacity:1; 
stroke-linecap:round; stroke-linejoin:round;">
</g>
<g style="fill:#008400; fill-opacity:0.0; 
stroke:#008400; stroke-width:60; stroke-opacity:1; 
stroke-linecap:round; stroke-linejoin:round;">
<path d="M72000 43500
L76500 43500
" />
<path d="M72000 46000
L76500 46000
" />
</g>
<g style="fill:#008400; fill-opacity:0.0; 
stroke:#008400; stroke-width:0; stroke-opacity:1; 
stroke-linecap:round; stroke-linejoin:round;">
</g>
<g style="fill:#840000; fill-opacity:0.0; 
stroke:#840000; stroke-width:0; stroke-opacity:1; 
stroke-linecap:round; stroke-linejoin:round;">
</g>
<g style="fill:#840000; fill-opacity:0.0; 
stroke:#840000; stroke-width:100; stroke-opacity:1; 
stroke-linecap:round; stroke-linejoin:round;">
<rect x="58500" y="25200" width="2000" height="600" rx="0" />
</g>
<g style="fill:#840000; fill-opacity:0.0; 
stroke:#840000; stroke-width:60; stroke-opacity:1; 
stroke-linecap:round; stroke-linejoin:round;">
<polyline fill="none;"
points="60500,25500
58500,25500
" /> 
<polyline fill="none;"
points="60500,24900
60100,24900
58900,26100
58500,26100
" /> 
<path d="M60500 25500
L61000 25500
" />
<path d="M58500 25500
L58000 25500
" />
</g>
<g style="fill:#008484; fill-opacity:0.0; 
stroke:#008484; stroke-width:60; stroke-opacity:1; 
stroke-linecap:round; stroke-linejoin:round;">
<path d="M59330 23230
L59160 23230
" />
<path d="M59160 23490
L59160 22990
L59400 22990
" />
<path d="M59570 23040
L59590 23020
L59640 22990
L59760 22990
L59800 23020
L59830 23040
L59850 23090
L59850 23130
L59830 23210
L59540 23490
L59850 23490
" />
<path d="M59110 23900
L59420 23900
L59260 24090
L59330 24090
L59380 24120
L59400 24140
L59420 24190
L59420 24310
L59400 24350
L59380 24380
L59330 24400
L59190 24400
L59140 24380
L59110 24350
" />
<path d="M59610 24260
L59850 24260
" />
<path d="M59570 24400
L59730 23900
L59900 24400
" />
</g>
<g style="fill:#008400; fill-opacity:0.0; 
stroke:#008400; stroke-width:60; stroke-opacity:1; 
stroke-linecap:round; stroke-linejoin:round;">
<path d="M57000 25500
L58000 25500
" />
<path d="M61000 25500
L61500 25500
" />
<path d="M58000 28500
L61500 28500
" />
</g>
<g style="fill:#0000C2; fill-opacity:0.0; 
stroke:#0000C2; stroke-width:60; stroke-opacity:1; 
stroke-linecap:round; stroke-linejoin:round;">
</g>
<g style="fill:#0000C2; fill-opacity:0.0; 
stroke:#0000C2; stroke-width:60; stroke-opacity:1; 
stroke-linecap:round; stroke-linejoin:round;stroke-dasharray:150,150;">
<path d="M86000 39000
L86000 49000
" />
</g>
<g style="fill:#0000C2; fill-opacity:0.0; 
stroke:#0000C2; stroke-width:60; stroke-opacity:1; 
stroke-linecap:round; stroke-linejoin:round;">
</g>
<g style="fill:#0000C2; fill-opacity:0.0; 
stroke:#0000C2; stroke-width:60; stroke-opacity:1; 
stroke-linecap:round; stroke-linejoin:round;stroke-dasharray:150,150;">
<path d="M56000 49000
L56000 39000
" />
</g>
<g style="fill:#0000C2; fill-opacity:0.0; 
stroke:#0000C2; stroke-width:60; stroke-opacity:1; 
stroke-linecap:round; stroke-linejoin:round;">
<path d="M64710 40360
L64710 39570
L64980 40130
L65240 39570
L65240 40360
" />
<path d="M65770 39570
L65920 39570
L65990 39610
L66070 39680
L66110 39830
L66110 40090
L66070 40240
L65990 40320
L65920 40360
L65770 40360
L65690 40320
L65620 40240
L65580 40090
L65580 39830
L65620 39680
L65690 39610
L65770 39570
" />
<path d="M66330 39570
L66780 39570
" />
<path d="M66560 40360
L66560 39570
" />
<path d="M67200 39570
L67350 39570
L67420 39610
L67500 39680
L67530 39830
L67530 40090
L67500 40240
L67420 40320
L67350 40360
L67200 40360
L67120 40320
L67050 40240
L67010 40090
L67010 39830
L67050 39680
L67120 39610
L67200 39570
" />
<path d="M68320 40360
L68060 39980
" />
<path d="M67870 40360
L67870 39570
L68170 39570
L68250 39610
L68290 39640
L68320 39720
L68320 39830
L68290 39910
L68250 39940
L68170 39980
L67870 39980
" />
<path d="M69270 40060
L69870 40060
" />
<path d="M69570 40360
L69570 39760
" />
<path d="M71300 40280
L71260 40320
L71150 40360
L71070 40360
L70960 40320
L70880 40240
L70850 40170
L70810 40020
L70810 39910
L70850 39760
L70880 39680
L70960 39610
L71070 39570
L71150 39570
L71260 39610
L71300 39640
" />
<path d="M71790 39570
L71940 39570
L72010 39610
L72090 39680
L72120 39830
L72120 40090
L72090 40240
L72010 40320
L71940 40360
L71790 40360
L71710 40320
L71640 40240
L71600 40090
L71600 39830
L71640 39680
L71710 39610
L71790 39570
" />
<path d="M72460 40360
L72460 39570
L72910 40360
L72910 39570
" />
<path d="M73180 39570
L73630 39570
" />
<path d="M73400 40360
L73400 39570
" />
<path d="M74340 40360
L74080 39980
" />
<path d="M73890 40360
L73890 39570
L74190 39570
L74270 39610
L74310 39640
L74340 39720
L74340 39830
L74310 39910
L74270 39940
L74190 39980
L73890 39980
" />
<path d="M74830 39570
L74980 39570
L75060 39610
L75130 39680
L75170 39830
L75170 40090
L75130 40240
L75060 40320
L74980 40360
L74830 40360
L74760 40320
L74680 40240
L74640 40090
L74640 39830
L74680 39680
L74760 39610
L74830 39570
" />
<path d="M75890 40360
L75510 40360
L75510 39570
" />
<path d="M76980 40660
L76940 40620
L76860 40510
L76830 40430
L76790 40320
L76750 40130
L76750 39980
L76790 39790
L76830 39680
L76860 39610
L76940 39490
L76980 39450
" />
<path d="M77200 40360
L77620 39830
" />
<path d="M77200 39830
L77620 40360
" />
<path d="M78260 39570
L78110 39570
L78030 39610
L77990 39640
L77920 39760
L77880 39910
L77880 40210
L77920 40280
L77960 40320
L78030 40360
L78180 40360
L78260 40320
L78290 40280
L78330 40210
L78330 40020
L78290 39940
L78260 39910
L78180 39870
L78030 39870
L77960 39910
L77920 39940
L77880 40020
" />
<path d="M78590 40660
L78630 40620
L78710 40510
L78750 40430
L78780 40320
L78820 40130
L78820 39980
L78780 39790
L78750 39680
L78710 39610
L78630 39490
L78590 39450
" />
</g>
<g style="fill:#0000C2; fill-opacity:0.0; 
stroke:#0000C2; stroke-width:60; stroke-opacity:1; 
stroke-linecap:round; stroke-linejoin:round;stroke-dasharray:150,150;">
<path d="M56000 39000
L86000 39000
" />
</g>
<g style="fill:#0000C2; fill-opacity:0.0; 
stroke:#0000C2; stroke-width:60; stroke-opacity:1; 
stroke-linecap:round; stroke-linejoin:round;">
</g>
<g style="fill:#0000C2; fill-opacity:0.0; 
stroke:#0000C2; stroke-width:60; stroke-opacity:1; 
stroke-linecap:round; stroke-linejoin:round;stroke-dasharray:150,150;">
<path d="M56000 49000
L86000 49000
" />
</g>
<g style="fill:#0000C2; fill-opacity:0.0; 
stroke:#0000C2; stroke-width:60; stroke-opacity:1; 
stroke-linecap:round; stroke-linejoin:round;">
</g>
<g style="fill:#0000C2; fill-opacity:0.0; 
stroke:#0000C2; stroke-width:0; stroke-opacity:1; 
stroke-linecap:round; stroke-linejoin:round;">
</g>
<g style="fill:#840000; fill-opacity:0.0; 
stroke:#840000; stroke-width:0; stroke-opacity:1; 
stroke-linecap:round; stroke-linejoin:round;">
</g>
<g style="fill:#840000; fill-opacity:0.0; 
stroke:#840000; stroke-width:100; stroke-opacity:1; 
stroke-linecap:round; stroke-linejoin:round;">
<rect x="59500" y="43200" width="2000" height="600" rx="0" />
</g>
<g style="fill:#840000; fill-opacity:0.0; 
stroke:#840000; stroke-width:60; stroke-opacity:1; 
stroke-linecap:round; stroke-linejoin:round;">
<polyline fill="none;"
points="61500,43500
59500,43500
" /> 
<polyline fill="none;"
points="61500,42900
61100,42900
59900,44100
59500,44100
" /> 
<path d="M61500 43500
L62000 43500
" />
<path d="M59500 43500
L59000 43500
" />
</g>
<g style="fill:#008484; fill-opacity:0.0; 
stroke:#008484; stroke-width:60; stroke-opacity:1; 
stroke-linecap:round; stroke-linejoin:round;">
<path d="M60330 41230
L60160 41230
" />
<path d="M60160 41490
L60160 40990
L60400 40990
" />
<path d="M60540 40990
L60850 40990
L60690 41180
L60760 41180
L60800 41210
L60830 41230
L60850 41280
L60850 41400
L60830 41440
L60800 41470
L60760 41490
L60610 41490
L60570 41470
L60540 41440
" />
<path d="M60190 42400
L59900 42400
" />
<path d="M60040 42400
L60040 41900
L60000 41970
L59950 42020
L59900 42040
" />
<path d="M60500 41900
L60540 41900
L60590 41930
L60610 41950
L60640 42000
L60660 42090
L60660 42210
L60640 42310
L60610 42350
L60590 42380
L60540 42400
L60500 42400
L60450 42380
L60420 42350
L60400 42310
L60380 42210
L60380 42090
L60400 42000
L60420 41950
L60450 41930
L60500 41900
" />
<path d="M60850 42260
L61090 42260
" />
<path d="M60800 42400
L60970 41900
L61140 42400
" />
</g>
<g style="fill:#008400; fill-opacity:0.0; 
stroke:#008400; stroke-width:60; stroke-opacity:1; 
stroke-linecap:round; stroke-linejoin:round;">
<path d="M62000 43500
L63000 43500
" />
<path d="M59000 43500
L57000 43500
" />
<path d="M58000 46000
L63000 46000
" />
</g> 
</svg>
